ffmpeg version 4.4.2-0ubuntu0.22.04.1 Copyright (c) 2000-2021 the FFmpeg developers
  built with gcc 11 (Ubuntu 11.2.0-19ubuntu1)
  configuration: --prefix=/usr --extra-version=0ubuntu0.22.04.1 --toolchain=hardened --libdir=/usr/lib/x86_64-linux-gnu --incdir=/usr/include/x86_64-linux-gnu --arch=amd64 --enable-gpl --disable-stripping --enable-gnutls --enable-ladspa --enable-libaom --enable-libass --enable-libbluray --enable-libbs2b --enable-libcaca --enable-libcdio --enable-libcodec2 --enable-libdav1d --enable-libflite --enable-libfontconfig --enable-libfreetype --enable-libfribidi --enable-libgme --enable-libgsm --enable-libjack --enable-libmp3lame --enable-libmysofa --enable-libopenjpeg --enable-libopenmpt --enable-libopus --enable-libpulse --enable-librabbitmq --enable-librubberband --enable-libshine --enable-libsnappy --enable-libsoxr --enable-libspeex --enable-libsrt --enable-libssh --enable-libtheora --enable-libtwolame --enable-libvidstab --enable-libvorbis --enable-libvpx --enable-libwebp --enable-libx265 --enable-libxml2 --enable-libxvid --enable-libzimg --enable-libzmq --enable-libzvbi --enable-lv2 --enable-omx --enable-openal --enable-opencl --enable-opengl --enable-sdl2 --enable-pocketsphinx --enable-librsvg --enable-libmfx --enable-libdc1394 --enable-libdrm --enable-libiec61883 --enable-chromaprint --enable-frei0r --enable-libx264 --enable-shared
  libavutil      56. 70.100 / 56. 70.100
  libavcodec     58.134.100 / 58.134.100
  libavformat    58. 76.100 / 58. 76.100
  libavdevice    58. 13.100 / 58. 13.100
  libavfilter     7.110.100 /  7.110.100
  libswscale      5.  9.100 /  5.  9.100
  libswresample   3.  9.100 /  3.  9.100
  libpostproc    55.  9.100 / 55.  9.100
Input #0, flv, from '/storage/32426326/20250712/32426326-20250712-135807-147.flv':
  Metadata:
    3.1             : false
    fileSize        : 0
    displayWidth    : 2560
    fps             : 60
    displayHeight   : 1440
    7.1             : false
    5.1             : false
    4.1             : false
    audiochannels   : 2
    4.0             : false
    cdn_ip          : 192.168.252.3
    encoder         : obs-output module (libobs version 31.0.2)
    2.1             : false
    Title           : 技术主播没有GG
    Artist          : 蓝音BuBuLine (32426326)
    Comment         : mikufans直播间 32426326 的直播录像
                    : 主播名: 蓝音BuBuLine
                    : 直播标题: 技术主播没有GG
                    : 直播分区: 单机游戏·主机游戏
                    : 录制时间: 2025-07-12T13:58:07.1637271+00:00
                    : 直播服务器:
                    : d1--ov-gotcha07b.bilivideo.com [156.59.188.243]
                    : 
                    : 使用 mikufans录播姬 录制 https://rec.danmuji.org
                    : 录播姬版本: 2.17.3
    RecordedBy      : BililiveRecorder mikufans录播姬
    RecordedFrom    : d1--ov-gotcha07b.bilivideo.com
    StreamServers   : d1--ov-gotcha07b.bilivideo.com [156.59.188.243]
    RecorderVersion : 2.17.3+Branch.tags-v2.17.3.Sha.96407e2eba9a597dd9997c6fb731725f4294a371
    StartTime       : Sat, 12 Jul 2025 13:58:07 +0000
    RoomId          : 32426326
    ShortId         : 0
    Name            : 蓝音BuBuLine
    StreamTitle     : 技术主播没有GG
    AreaNameParent  : 单机游戏
    AreaNameChild   : 主机游戏
  Duration: 07:53:54.35, start: 0.035000, bitrate: 9005 kb/s
  Stream #0:0: Video: h264 (High), yuv420p(tv, bt709, progressive), 2560x1440 [SAR 1:1 DAR 16:9], 10240 kb/s, 60 fps, 60 tbr, 1k tbn, 120 tbc
  Stream #0:1: Audio: aac (LC), 48000 Hz, stereo, fltp, 196 kb/s
Stream mapping:
  Stream #0:0 -> #0:0 (h264 (native) -> png (native))
Press [q] to stop, [?] for help
Output #0, image2, to '/storage/32426326/20250712/32426326-20250712-135807-147.all.thumb.png':
  Metadata:
    3.1             : false
    fileSize        : 0
    displayWidth    : 2560
    fps             : 60
    displayHeight   : 1440
    7.1             : false
    5.1             : false
    4.1             : false
    audiochannels   : 2
    4.0             : false
    cdn_ip          : 192.168.252.3
    AreaNameChild   : 主机游戏
    2.1             : false
    Title           : 技术主播没有GG
    Artist          : 蓝音BuBuLine (32426326)
    Comment         : mikufans直播间 32426326 的直播录像
                    : 主播名: 蓝音BuBuLine
                    : 直播标题: 技术主播没有GG
                    : 直播分区: 单机游戏·主机游戏
                    : 录制时间: 2025-07-12T13:58:07.1637271+00:00
                    : 直播服务器:
                    : d1--ov-gotcha07b.bilivideo.com [156.59.188.243]
                    : 
                    : 使用 mikufans录播姬 录制 https://rec.danmuji.org
                    : 录播姬版本: 2.17.3
    RecordedBy      : BililiveRecorder mikufans录播姬
    RecordedFrom    : d1--ov-gotcha07b.bilivideo.com
    StreamServers   : d1--ov-gotcha07b.bilivideo.com [156.59.188.243]
    RecorderVersion : 2.17.3+Branch.tags-v2.17.3.Sha.96407e2eba9a597dd9997c6fb731725f4294a371
    StartTime       : Sat, 12 Jul 2025 13:58:07 +0000
    RoomId          : 32426326
    ShortId         : 0
    Name            : 蓝音BuBuLine
    StreamTitle     : 技术主播没有GG
    AreaNameParent  : 单机游戏
    encoder         : Lavf58.76.100
  Stream #0:0: Video: png, rgb24(pc, gbr/bt709/bt709, progressive), 2560x1440 [SAR 1:1 DAR 16:9], q=2-31, 200 kb/s, 60 fps, 60 tbn
    Metadata:
      encoder         : Lavc58.134.100 png
frame=    1 fps=0.0 q=0.0 size=N/A time=00:00:00.00 bitrate=N/A speed=   0x    frame=    1 fps=0.0 q=-0.0 Lsize=N/A time=00:00:00.01 bitrate=N/A speed=0.0222x    
video:4214kB audio:0kB subtitle:0kB other streams:0kB global headers:0kB muxing overhead: unknown
ffmpeg version 4.4.2-0ubuntu0.22.04.1 Copyright (c) 2000-2021 the FFmpeg developers
  built with gcc 11 (Ubuntu 11.2.0-19ubuntu1)
  configuration: --prefix=/usr --extra-version=0ubuntu0.22.04.1 --toolchain=hardened --libdir=/usr/lib/x86_64-linux-gnu --incdir=/usr/include/x86_64-linux-gnu --arch=amd64 --enable-gpl --disable-stripping --enable-gnutls --enable-ladspa --enable-libaom --enable-libass --enable-libbluray --enable-libbs2b --enable-libcaca --enable-libcdio --enable-libcodec2 --enable-libdav1d --enable-libflite --enable-libfontconfig --enable-libfreetype --enable-libfribidi --enable-libgme --enable-libgsm --enable-libjack --enable-libmp3lame --enable-libmysofa --enable-libopenjpeg --enable-libopenmpt --enable-libopus --enable-libpulse --enable-librabbitmq --enable-librubberband --enable-libshine --enable-libsnappy --enable-libsoxr --enable-libspeex --enable-libsrt --enable-libssh --enable-libtheora --enable-libtwolame --enable-libvidstab --enable-libvorbis --enable-libvpx --enable-libwebp --enable-libx265 --enable-libxml2 --enable-libxvid --enable-libzimg --enable-libzmq --enable-libzvbi --enable-lv2 --enable-omx --enable-openal --enable-opencl --enable-opengl --enable-sdl2 --enable-pocketsphinx --enable-librsvg --enable-libmfx --enable-libdc1394 --enable-libdrm --enable-libiec61883 --enable-chromaprint --enable-frei0r --enable-libx264 --enable-shared
  libavutil      56. 70.100 / 56. 70.100
  libavcodec     58.134.100 / 58.134.100
  libavformat    58. 76.100 / 58. 76.100
  libavdevice    58. 13.100 / 58. 13.100
  libavfilter     7.110.100 /  7.110.100
  libswscale      5.  9.100 /  5.  9.100
  libswresample   3.  9.100 /  3.  9.100
  libpostproc    55.  9.100 / 55.  9.100
[flv @ 0x5638608e0fc0] Auto-inserting h264_mp4toannexb bitstream filter
Input #0, concat, from '/storage/32426326/20250712/32426326-20250712-135807-147.all.concat.txt':
  Duration: N/A, start: 0.000000, bitrate: 10436 kb/s
  Stream #0:0: Video: h264 (High), yuv420p(tv, bt709, progressive), 2560x1440 [SAR 1:1 DAR 16:9], 10240 kb/s, 60 fps, 60 tbr, 1k tbn, 120 tbc
  Stream #0:1: Audio: aac (LC), 48000 Hz, stereo, fltp, 196 kb/s
Output #0, flv, to '/storage/32426326/20250712/32426326-20250712-135807-147.all.flv':
  Metadata:
    encoder         : Lavf58.76.100
  Stream #0:0: Video: h264 (High) ([7][0][0][0] / 0x0007), yuv420p(tv, bt709, progressive), 2560x1440 [SAR 1:1 DAR 16:9], q=2-31, 10240 kb/s, 60 fps, 60 tbr, 1k tbn, 1k tbc
  Stream #0:1: Audio: aac (LC) ([10][0][0][0] / 0x000A), 48000 Hz, stereo, fltp, 196 kb/s
Stream mapping:
  Stream #0:0 -> #0:0 (copy)
  Stream #0:1 -> #0:1 (copy)
Press [q] to stop, [?] for help
frame=    1 fps=0.0 q=-1.0 size=       0kB time=00:00:00.00 bitrate=N/A speed=N/A    frame= 3828 fps=0.0 q=-1.0 size=   35840kB time=00:01:03.78 bitrate=4603.0kbits/s speed= 128x    frame= 5559 fps=5555 q=-1.0 size=   71936kB time=00:01:32.62 bitrate=6362.0kbits/s speed=92.6x    frame= 7271 fps=4845 q=-1.0 size=  107520kB time=00:02:01.11 bitrate=7272.6kbits/s speed=80.7x    frame= 9031 fps=4514 q=-1.0 size=  143872kB time=00:02:30.45 bitrate=7833.8kbits/s speed=75.2x    frame=10696 fps=4277 q=-1.0 size=  178688kB time=00:02:58.19 bitrate=8214.8kbits/s speed=71.3x    frame=12687 fps=4228 q=-1.0 size=  214528kB time=00:03:31.31 bitrate=8316.6kbits/s speed=70.4x    frame=15079 fps=4307 q=-1.0 size=  252928kB time=00:04:11.19 bitrate=8248.4kbits/s speed=71.8x    frame=16939 fps=4234 q=-1.0 size=  289536kB time=00:04:42.17 bitrate=8405.8kbits/s speed=70.5x    frame=19067 fps=4236 q=-1.0 size=  325888kB time=00:05:17.63 bitrate=8405.0kbits/s speed=70.6x    frame=20759 fps=4151 q=-1.0 size=  361472kB time=00:05:45.84 bitrate=8562.3kbits/s speed=69.2x    frame=22452 fps=4081 q=-1.0 size=  396288kB time=00:06:14.02 bitrate=8679.6kbits/s speed=  68x    frame=24153 fps=4024 q=-1.0 size=  431616kB time=00:06:42.34 bitrate=8787.9kbits/s speed=  67x    frame=25879 fps=3980 q=-1.0 size=  467456kB time=00:07:11.13 bitrate=8882.2kbits/s speed=66.3x    frame=27547 fps=3934 q=-1.0 size=  502272kB time=00:07:38.92 bitrate=8965.8kbits/s speed=65.5x    frame=29269 fps=3901 q=-1.0 size=  538112kB time=00:08:07.61 bitrate=9040.4kbits/s speed=  65x    frame=30959 fps=3868 q=-1.0 size=  572928kB time=00:08:35.74 bitrate=9100.3kbits/s speed=64.4x    frame=32651 fps=3840 q=-1.0 size=  608256kB time=00:09:03.91 bitrate=9161.1kbits/s speed=  64x    frame=34395 fps=3820 q=-1.0 size=  644608kB time=00:09:32.97 bitrate=9216.1kbits/s speed=63.6x    frame=36000 fps=3788 q=-1.0 size=  677888kB time=00:09:59.72 bitrate=9259.7kbits/s speed=63.1x    frame=37681 fps=3767 q=-1.0 size=  712960kB time=00:10:27.71 bitrate=9304.5kbits/s speed=62.7x    frame=39378 fps=3749 q=-1.0 size=  748032kB time=00:10:55.97 bitrate=9341.7kbits/s speed=62.4x    frame=41087 fps=3733 q=-1.0 size=  783616kB time=00:11:24.42 bitrate=9379.2kbits/s speed=62.2x    frame=43051 fps=3742 q=-1.0 size=  819456kB time=00:11:57.12 bitrate=9361.0kbits/s speed=62.3x    frame=45250 fps=3769 q=-1.0 size=  856576kB time=00:12:33.76 bitrate=9309.3kbits/s speed=62.8x    frame=46971 fps=3756 q=-1.0 size=  892416kB time=00:13:02.44 bitrate=9343.4kbits/s speed=62.6x    frame=48820 fps=3754 q=-1.0 size=  930816kB time=00:13:33.24 bitrate=9376.3kbits/s speed=62.5x    frame=50578 fps=3745 q=-1.0 size=  967424kB time=00:14:02.52 bitrate=9406.4kbits/s speed=62.4x    frame=52486 fps=3747 q=-1.0 size= 1006848kB time=00:14:34.26 bitrate=9434.3kbits/s speed=62.4x    frame=54304 fps=3743 q=-1.0 size= 1044480kB time=00:15:04.57 bitrate=9459.0kbits/s speed=62.4x    frame=55977 fps=3730 q=-1.0 size= 1079552kB time=00:15:32.44 bitrate=9484.4kbits/s speed=62.1x    frame=57745 fps=3724 q=-1.0 size= 1116160kB time=00:16:01.88 bitrate=9505.9kbits/s speed=  62x    frame=59421 fps=3712 q=-1.0 size= 1150976kB time=00:16:29.76 bitrate=9526.3kbits/s speed=61.8x    frame=61059 fps=3699 q=-1.0 size= 1185024kB time=00:16:57.05 bitrate=9544.9kbits/s speed=61.6x    frame=62676 fps=3685 q=-1.0 size= 1218560kB time=00:17:23.99 bitrate=9561.8kbits/s speed=61.4x    frame=64260 fps=3670 q=-1.0 size= 1251584kB time=00:17:50.39 bitrate=9578.7kbits/s speed=61.1x    frame=65924 fps=3661 q=-1.0 size= 1286400kB time=00:18:18.12 bitrate=9596.5kbits/s speed=  61x    frame=67916 fps=3669 q=-1.0 size= 1322240kB time=00:18:51.28 bitrate=9574.8kbits/s speed=61.1x    frame=69867 fps=3675 q=-1.0 size= 1356288kB time=00:19:23.77 bitrate=9547.1kbits/s speed=61.2x    frame=71522 fps=3666 q=-1.0 size= 1390592kB time=00:19:51.32 bitrate=9562.3kbits/s speed=61.1x    frame=73277 fps=3662 q=-1.0 size= 1426944kB time=00:20:20.55 bitrate=9577.2kbits/s speed=  61x    frame=74827 fps=3648 q=-1.0 size= 1459200kB time=00:20:46.40 bitrate=9590.6kbits/s speed=60.8x    frame=76681 fps=3650 q=-1.0 size= 1497600kB time=00:21:17.30 bitrate=9604.8kbits/s speed=60.8x    frame=78508 fps=3650 q=-1.0 size= 1535744kB time=00:21:47.73 bitrate=9620.3kbits/s speed=60.8x    frame=80338 fps=3650 q=-1.0 size= 1573632kB time=00:22:18.22 bitrate=9633.1kbits/s speed=60.8x    frame=82164 fps=3650 q=-1.0 size= 1611776kB time=00:22:48.59 bitrate=9647.6kbits/s speed=60.8x    frame=83988 fps=3650 q=-1.0 size= 1649664kB time=00:23:18.98 bitrate=9659.9kbits/s speed=60.8x    frame=85817 fps=3650 q=-1.0 size= 1687552kB time=00:23:49.48 bitrate=9670.9kbits/s speed=60.8x    frame=87707 fps=3652 q=-1.0 size= 1726720kB time=00:24:20.96 bitrate=9682.1kbits/s speed=60.8x    frame=89664 fps=3658 q=-1.0 size= 1767424kB time=00:24:53.55 bitrate=9694.1kbits/s speed=60.9x    frame=91729 fps=3667 q=-1.0 size= 1810688kB time=00:25:27.95 bitrate=9707.9kbits/s speed=61.1x    frame=93690 fps=3672 q=-1.0 size= 1851392kB time=00:26:00.61 bitrate=9718.3kbits/s speed=61.2x    frame=95567 fps=3674 q=-1.0 size= 1890304kB time=00:26:31.87 bitrate=9727.8kbits/s speed=61.2x    frame=97369 fps=3672 q=-1.0 size= 1927680kB time=00:27:01.88 bitrate=9736.6kbits/s speed=61.2x    frame=99240 fps=3673 q=-1.0 size= 1966592kB time=00:27:33.07 bitrate=9745.7kbits/s speed=61.2x    frame=101074 fps=3673 q=-1.0 size= 2004736kB time=00:28:03.62 bitrate=9754.4kbits/s speed=61.2x    frame=102758 fps=3668 q=-1.0 size= 2039808kB time=00:28:31.63 bitrate=9762.6kbits/s speed=61.1x    frame=104847 fps=3677 q=-1.0 size= 2076928kB time=00:29:06.43 bitrate=9742.3kbits/s speed=61.2x    frame=107112 fps=3692 q=-1.0 size= 2118400kB time=00:29:44.18 bitrate=9726.5kbits/s speed=61.5x    frame=109067 fps=3695 q=-1.0 size= 2158848kB time=00:30:16.70 bitrate=9734.8kbits/s speed=61.5x    frame=110999 fps=3698 q=-1.0 size= 2199040kB time=00:30:48.92 bitrate=9743.2kbits/s speed=61.6x    frame=112880 fps=3699 q=-1.0 size= 2238464kB time=00:31:20.23 bitrate=9752.8kbits/s speed=61.6x    frame=114623 fps=3696 q=-1.0 size= 2274304kB time=00:31:49.27 bitrate=9758.2kbits/s speed=61.6x    frame=116276 fps=3689 q=-1.0 size= 2308864kB time=00:32:16.78 bitrate=9765.8kbits/s speed=61.5x    frame=118066 fps=3687 q=-1.0 size= 2345984kB time=00:32:46.64 bitrate=9772.1kbits/s speed=61.4x    frame=119701 fps=3681 q=-1.0 size= 2379776kB time=00:33:13.87 bitrate=9777.5kbits/s speed=61.3x    frame=121529 fps=3681 q=-1.0 size= 2417920kB time=00:33:44.31 bitrate=9784.8kbits/s speed=61.3x    frame=123343 fps=3680 q=-1.0 size= 2455552kB time=00:34:14.56 bitrate=9790.8kbits/s speed=61.3x    frame=125237 fps=3681 q=-1.0 size= 2494976kB time=00:34:46.12 bitrate=9797.5kbits/s speed=61.3x    frame=127125 fps=3683 q=-1.0 size= 2534144kB time=00:35:17.57 bitrate=9803.5kbits/s speed=61.3x    frame=129580 fps=3700 q=-1.0 size= 2580992kB time=00:35:58.47 bitrate=9795.6kbits/s speed=61.6x    frame=131760 fps=3709 q=-1.0 size= 2624512kB time=00:36:34.79 bitrate=9795.9kbits/s speed=61.8x    frame=134728 fps=3740 q=-1.0 size= 2667776kB time=00:37:24.24 bitrate=9738.0kbits/s speed=62.3x    frame=136644 fps=3742 q=-1.0 size= 2707200kB time=00:37:56.14 bitrate=9743.4kbits/s speed=62.3x    frame=138334 fps=3737 q=-1.0 size= 2742528kB time=00:38:24.28 bitrate=9750.0kbits/s speed=62.2x    frame=140205 fps=3737 q=-1.0 size= 2781184kB time=00:38:55.47 bitrate=9755.4kbits/s speed=62.2x    frame=142086 fps=3737 q=-1.0 size= 2820352kB time=00:39:26.77 bitrate=9761.9kbits/s speed=62.2x    frame=143957 fps=3737 q=-1.0 size= 2859264kB time=00:39:57.97 bitrate=9767.9kbits/s speed=62.3x    frame=145839 fps=3737 q=-1.0 size= 2898176kB time=00:40:29.32 bitrate=9773.0kbits/s speed=62.3x    frame=147624 fps=3735 q=-1.0 size= 2935552kB time=00:40:59.05 bitrate=9779.4kbits/s speed=62.2x    frame=149434 fps=3734 q=-1.0 size= 2973184kB time=00:41:29.21 bitrate=9784.8kbits/s speed=62.2x    frame=151326 fps=3734 q=-1.0 size= 3012352kB time=00:42:00.73 bitrate=9789.7kbits/s speed=62.2x    frame=153206 fps=3735 q=-1.0 size= 3051520kB time=00:42:32.06 bitrate=9795.2kbits/s speed=62.2x    frame=154947 fps=3732 q=-1.0 size= 3087872kB time=00:43:01.04 bitrate=9800.6kbits/s speed=62.2x    frame=156825 fps=3732 q=-1.0 size= 3126528kB time=00:43:32.28 bitrate=9804.6kbits/s speed=62.2x    frame=158609 fps=3730 q=-1.0 size= 3163648kB time=00:44:02.02 bitrate=9809.4kbits/s speed=62.1x    frame=160416 fps=3729 q=-1.0 size= 3201280kB time=00:44:32.13 bitrate=9814.2kbits/s speed=62.1x    frame=162517 fps=3734 q=-1.0 size= 3239680kB time=00:45:07.13 bitrate=9803.5kbits/s speed=62.2x    frame=164643 fps=3740 q=-1.0 size= 3278592kB time=00:45:42.55 bitrate=9793.1kbits/s speed=62.3x    frame=166374 fps=3737 q=-1.0 size= 3314688kB time=00:46:11.35 bitrate=9798.1kbits/s speed=62.2x    frame=168255 fps=3737 q=-1.0 size= 3353600kB time=00:46:42.71 bitrate=9802.2kbits/s speed=62.3x    frame=169963 fps=3734 q=-1.0 size= 3389184kB time=00:47:11.16 bitrate=9806.6kbits/s speed=62.2x    frame=171695 fps=3731 q=-1.0 size= 3425280kB time=00:47:40.00 bitrate=9811.1kbits/s speed=62.1x    frame=173709 fps=3734 q=-1.0 size= 3467264kB time=00:48:13.56 bitrate=9816.2kbits/s speed=62.2x    frame=175550 fps=3733 q=-1.0 size= 3505408kB time=00:48:44.22 bitrate=9820.1kbits/s speed=62.2x    frame=177268 fps=3730 q=-1.0 size= 3540736kB time=00:49:12.82 bitrate=9823.0kbits/s speed=62.1x    frame=179222 fps=3732 q=-1.0 size= 3581696kB time=00:49:45.40 bitrate=9828.2kbits/s speed=62.2x    frame=181092 fps=3732 q=-1.0 size= 3620608kB time=00:50:16.54 bitrate=9832.4kbits/s speed=62.2x    frame=182965 fps=3732 q=-1.0 size= 3659520kB time=00:50:47.74 bitrate=9836.4kbits/s speed=62.2x    frame=184793 fps=3731 q=-1.0 size= 3697408kB time=00:51:18.15 bitrate=9840.0kbits/s speed=62.2x    frame=186532 fps=3729 q=-1.0 size= 3733760kB time=00:51:47.15 bitrate=9844.1kbits/s speed=62.1x    frame=188137 fps=3724 q=-1.0 size= 3766784kB time=00:52:13.89 bitrate=9846.4kbits/s speed=  62x    frame=190018 fps=3724 q=-1.0 size= 3805952kB time=00:52:45.16 bitrate=9850.5kbits/s speed=  62x    frame=191880 fps=3724 q=-1.0 size= 3844608kB time=00:53:16.19 bitrate=9853.9kbits/s speed=  62x    frame=193859 fps=3726 q=-1.0 size= 3881472kB time=00:53:49.16 bitrate=9846.8kbits/s speed=62.1x    frame=195847 fps=3728 q=-1.0 size= 3922688kB time=00:54:22.29 bitrate=9850.3kbits/s speed=62.1x    frame=198050 fps=3735 q=-1.0 size= 3962368kB time=00:54:58.98 bitrate=9839.3kbits/s speed=62.2x    frame=199775 fps=3732 q=-1.0 size= 3998464kB time=00:55:27.73 bitrate=9843.2kbits/s speed=62.2x    frame=201648 fps=3732 q=-1.0 size= 4037376kB time=00:55:58.90 bitrate=9846.7kbits/s speed=62.2x    frame=203545 fps=3733 q=-1.0 size= 4076544kB time=00:56:30.53 bitrate=9849.5kbits/s speed=62.2x    frame=205295 fps=3731 q=-1.0 size= 4112896kB time=00:56:59.66 bitrate=9852.7kbits/s speed=62.1x    frame=207112 fps=3730 q=-1.0 size= 4150784kB time=00:57:29.96 bitrate=9856.1kbits/s speed=62.1x    frame=209088 fps=3732 q=-1.0 size= 4191744kB time=00:58:02.87 bitrate=9859.3kbits/s speed=62.2x    frame=210902 fps=3731 q=-1.0 size= 4229632kB time=00:58:33.09 bitrate=9862.9kbits/s speed=62.1x    frame=212844 fps=3732 q=-1.0 size= 4269824kB time=00:59:05.43 bitrate=9865.8kbits/s speed=62.2x    frame=214737 fps=3732 q=-1.0 size= 4309248kB time=00:59:36.94 bitrate=9869.1kbits/s speed=62.2x    frame=216420 fps=3729 q=-1.0 size= 4344320kB time=01:00:04.98 bitrate=9872.1kbits/s speed=62.1x    frame=218219 fps=3728 q=-1.0 size= 4381696kB time=01:00:34.91 bitrate=9875.0kbits/s speed=62.1x    frame=220080 fps=3728 q=-1.0 size= 4420352kB time=01:01:05.91 bitrate=9877.9kbits/s speed=62.1x    frame=221986 fps=3729 q=-1.0 size= 4460032kB time=01:01:37.65 bitrate=9881.0kbits/s speed=62.1x    frame=223715 fps=3726 q=-1.0 size= 4495872kB time=01:02:06.46 bitrate=9883.4kbits/s speed=62.1x    frame=225621 fps=3727 q=-1.0 size= 4535808kB time=01:02:38.23 bitrate=9886.9kbits/s speed=62.1x    frame=227715 fps=3731 q=-1.0 size= 4578816kB time=01:03:13.12 bitrate=9888.9kbits/s speed=62.1x    frame=229502 fps=3730 q=-1.0 size= 4616192kB time=01:03:42.89 bitrate=9892.0kbits/s speed=62.1x    frame=231701 fps=3735 q=-1.0 size= 4656128kB time=01:04:19.54 bitrate=9882.8kbits/s speed=62.2x    frame=233782 fps=3738 q=-1.0 size= 4695808kB time=01:04:54.20 bitrate=9878.3kbits/s speed=62.3x    frame=235829 fps=3741 q=-1.0 size= 4734208kB time=01:05:28.30 bitrate=9872.6kbits/s speed=62.3x    frame=237695 fps=3741 q=-1.0 size= 4772864kB time=01:05:59.39 bitrate=9875.1kbits/s speed=62.3x    frame=239578 fps=3741 q=-1.0 size= 4812032kB time=01:06:30.75 bitrate=9877.9kbits/s speed=62.3x    frame=241292 fps=3739 q=-1.0 size= 4847872kB time=01:06:59.31 bitrate=9880.7kbits/s speed=62.3x    frame=243235 fps=3740 q=-1.0 size= 4887808kB time=01:07:31.66 bitrate=9882.6kbits/s speed=62.3x    frame=245425 fps=3745 q=-1.0 size= 4927488kB time=01:08:08.15 bitrate=9873.9kbits/s speed=62.4x    frame=247129 fps=3742 q=-1.0 size= 4962560kB time=01:08:36.53 bitrate=9875.6kbits/s speed=62.3x    frame=249351 fps=3748 q=-1.0 size= 5002240kB time=01:09:13.55 bitrate=9865.8kbits/s speed=62.4x    frame=251281 fps=3748 q=-1.0 size= 5042176kB time=01:09:45.70 bitrate=9868.2kbits/s speed=62.4x    frame=252957 fps=3745 q=-1.0 size= 5077248kB time=01:10:13.64 bitrate=9871.0kbits/s speed=62.4x    frame=254879 fps=3746 q=-1.0 size= 5117184kB time=01:10:45.65 bitrate=9873.6kbits/s speed=62.4x    frame=256729 fps=3746 q=-1.0 size= 5155328kB time=01:11:16.43 bitrate=9875.6kbits/s speed=62.4x    frame=258603 fps=3746 q=-1.0 size= 5194240kB time=01:11:47.65 bitrate=9878.0kbits/s speed=62.4x    frame=260509 fps=3746 q=-1.0 size= 5233920kB time=01:12:19.39 bitrate=9880.7kbits/s speed=62.4x    frame=262397 fps=3746 q=-1.0 size= 5273344kB time=01:12:50.83 bitrate=9883.5kbits/s speed=62.4x    frame=264150 fps=3745 q=-1.0 size= 5309696kB time=01:13:20.05 bitrate=9885.6kbits/s speed=62.4x    frame=265990 fps=3744 q=-1.0 size= 5347840kB time=01:13:50.67 bitrate=9887.8kbits/s speed=62.4x    frame=267920 fps=3745 q=-1.0 size= 5388032kB time=01:14:22.82 bitrate=9890.3kbits/s speed=62.4x    frame=269671 fps=3743 q=-1.0 size= 5424640kB time=01:14:51.98 bitrate=9892.9kbits/s speed=62.4x    frame=271510 fps=3743 q=-1.0 size= 5462528kB time=01:15:22.62 bitrate=9894.5kbits/s speed=62.3x    frame=273316 fps=3742 q=-1.0 size= 5500672kB time=01:15:52.71 bitrate=9897.7kbits/s speed=62.3x    frame=275346 fps=3744 q=-1.0 size= 5537024kB time=01:16:26.52 bitrate=9889.7kbits/s speed=62.4x    frame=277562 fps=3749 q=-1.0 size= 5575680kB time=01:17:03.44 bitrate=9879.2kbits/s speed=62.4x    frame=279462 fps=3749 q=-1.0 size= 5615104kB time=01:17:35.07 bitrate=9881.5kbits/s speed=62.5x    frame=281231 fps=3748 q=-1.0 size= 5652224kB time=01:18:04.52 bitrate=9884.3kbits/s speed=62.4x    frame=282992 fps=3746 q=-1.0 size= 5688576kB time=01:18:33.86 bitrate=9885.9kbits/s speed=62.4x    frame=284830 fps=3746 q=-1.0 size= 5726720kB time=01:19:04.49 bitrate=9887.9kbits/s speed=62.4x    frame=286624 fps=3745 q=-1.0 size= 5764096kB time=01:19:34.37 bitrate=9890.2kbits/s speed=62.4x    frame=288501 fps=3745 q=-1.0 size= 5803264kB time=01:20:05.62 bitrate=9892.7kbits/s speed=62.4x    frame=290287 fps=3744 q=-1.0 size= 5840128kB time=01:20:35.36 bitrate=9894.3kbits/s speed=62.4x    frame=292038 fps=3742 q=-1.0 size= 5876480kB time=01:21:04.50 bitrate=9896.2kbits/s speed=62.3x    frame=293855 fps=3741 q=-1.0 size= 5914112kB time=01:21:34.77 bitrate=9898.0kbits/s speed=62.3x    frame=295916 fps=3744 q=-1.0 size= 5953024kB time=01:22:09.09 bitrate=9893.7kbits/s speed=62.4x    frame=297631 fps=3742 q=-1.0 size= 5988608kB time=01:22:37.68 bitrate=9895.5kbits/s speed=62.3x    frame=299811 fps=3745 q=-1.0 size= 6027776kB time=01:23:13.95 bitrate=9887.9kbits/s speed=62.4x    frame=301643 fps=3745 q=-1.0 size= 6065664kB time=01:23:44.45 bitrate=9889.6kbits/s speed=62.4x    frame=303450 fps=3744 q=-1.0 size= 6103040kB time=01:24:14.59 bitrate=9891.2kbits/s speed=62.4x    frame=305327 fps=3744 q=-1.0 size= 6142208kB time=01:24:45.81 bitrate=9893.6kbits/s speed=62.4x    frame=307227 fps=3744 q=-1.0 size= 6181632kB time=01:25:17.50 bitrate=9895.4kbits/s speed=62.4x    frame=309068 fps=3744 q=-1.0 size= 6220032kB time=01:25:48.14 bitrate=9897.6kbits/s speed=62.4x    frame=310900 fps=3744 q=-1.0 size= 6257920kB time=01:26:18.66 bitrate=9899.2kbits/s speed=62.4x    frame=312768 fps=3744 q=-1.0 size= 6296832kB time=01:26:49.78 bitrate=9901.3kbits/s speed=62.4x    frame=314528 fps=3742 q=-1.0 size= 6333440kB time=01:27:19.11 bitrate=9903.1kbits/s speed=62.3x    frame=316400 fps=3742 q=-1.0 size= 6372352kB time=01:27:50.27 bitrate=9905.0kbits/s speed=62.3x    frame=318257 fps=3742 q=-1.0 size= 6411008kB time=01:28:21.21 bitrate=9907.0kbits/s speed=62.3x    frame=320076 fps=3741 q=-1.0 size= 6448640kB time=01:28:51.50 bitrate=9908.5kbits/s speed=62.3x    frame=321952 fps=3741 q=-1.0 size= 6487808kB time=01:29:22.77 bitrate=9910.6kbits/s speed=62.3x    frame=323664 fps=3740 q=-1.0 size= 6523136kB time=01:29:51.28 bitrate=9911.8kbits/s speed=62.3x    frame=325520 fps=3739 q=-1.0 size= 6561792kB time=01:30:22.19 bitrate=9913.7kbits/s speed=62.3x    frame=327348 fps=3739 q=-1.0 size= 6599168kB time=01:30:52.65 bitrate=9914.5kbits/s speed=62.3x    frame=329177 fps=3738 q=-1.0 size= 6636032kB time=01:31:23.12 bitrate=9914.5kbits/s speed=62.3x    frame=331108 fps=3739 q=-1.0 size= 6671616kB time=01:31:55.28 bitrate=9909.5kbits/s speed=62.3x    frame=333271 fps=3742 q=-1.0 size= 6708992kB time=01:32:31.31 bitrate=9900.4kbits/s speed=62.3x    frame=335156 fps=3743 q=-1.0 size= 6747904kB time=01:33:02.67 bitrate=9901.9kbits/s speed=62.3x    frame=337059 fps=3743 q=-1.0 size= 6787328kB time=01:33:34.38 bitrate=9903.4kbits/s speed=62.3x    frame=339170 fps=3746 q=-1.0 size= 6831360kB time=01:34:09.54 bitrate=9905.7kbits/s speed=62.4x    frame=341201 fps=3747 q=-1.0 size= 6873600kB time=01:34:43.36 bitrate=9907.6kbits/s speed=62.4x    frame=343325 fps=3750 q=-1.0 size= 6917632kB time=01:35:18.74 bitrate=9909.4kbits/s speed=62.5x    frame=345137 fps=3749 q=-1.0 size= 6955264kB time=01:35:48.92 bitrate=9911.0kbits/s speed=62.5x    frame=347066 fps=3750 q=-1.0 size= 6995456kB time=01:36:21.04 bitrate=9912.9kbits/s speed=62.5x    frame=348867 fps=3749 q=-1.0 size= 7032832kB time=01:36:51.03 bitrate=9914.4kbits/s speed=62.4x    frame=350763 fps=3749 q=-1.0 size= 7072256kB time=01:37:22.61 bitrate=9916.1kbits/s speed=62.5x    frame=352543 fps=3748 q=-1.0 size= 7109376kB time=01:37:52.27 bitrate=9917.8kbits/s speed=62.4x    frame=354394 fps=3748 q=-1.0 size= 7147776kB time=01:38:23.10 bitrate=9919.3kbits/s speed=62.4x    frame=356113 fps=3746 q=-1.0 size= 7183616kB time=01:38:51.73 bitrate=9920.9kbits/s speed=62.4x    frame=357876 fps=3745 q=-1.0 size= 7219968kB time=01:39:21.08 bitrate=9922.0kbits/s speed=62.4x    frame=359700 fps=3745 q=-1.0 size= 7257600kB time=01:39:51.45 bitrate=9923.2kbits/s speed=62.4x    frame=361430 fps=3743 q=-1.0 size= 7293696kB time=01:40:20.29 bitrate=9924.8kbits/s speed=62.4x    frame=363532 fps=3746 q=-1.0 size= 7331328kB time=01:40:55.25 bitrate=9918.4kbits/s speed=62.4x    frame=365254 fps=3744 q=-1.0 size= 7367168kB time=01:41:23.91 bitrate=9919.9kbits/s speed=62.4x    frame=367399 fps=3747 q=-1.0 size= 7404288kB time=01:41:59.63 bitrate=9911.7kbits/s speed=62.4x    frame=369094 fps=3745 q=-1.0 size= 7439360kB time=01:42:27.89 bitrate=9912.9kbits/s speed=62.4x    frame=370916 fps=3744 q=-1.0 size= 7477248kB time=01:42:58.26 bitrate=9914.4kbits/s speed=62.4x    frame=372621 fps=3743 q=-1.0 size= 7512832kB time=01:43:26.66 bitrate=9916.0kbits/s speed=62.3x    frame=374310 fps=3741 q=-1.0 size= 7547904kB time=01:43:54.76 bitrate=9917.4kbits/s speed=62.3x    frame=376035 fps=3739 q=-1.0 size= 7583744kB time=01:44:23.53 bitrate=9918.7kbits/s speed=62.3x    frame=377758 fps=3738 q=-1.0 size= 7619584kB time=01:44:52.22 bitrate=9920.1kbits/s speed=62.3x    frame=379487 fps=3737 q=-1.0 size= 7655424kB time=01:45:21.01 bitrate=9921.4kbits/s speed=62.2x    frame=381268 fps=3736 q=-1.0 size= 7692544kB time=01:45:50.64 bitrate=9923.0kbits/s speed=62.2x    frame=383020 fps=3735 q=-1.0 size= 7728896kB time=01:46:19.84 bitrate=9924.2kbits/s speed=62.2x    frame=384745 fps=3733 q=-1.0 size= 7764736kB time=01:46:48.58 bitrate=9925.6kbits/s speed=62.2x    frame=386553 fps=3733 q=-1.0 size= 7802368kB time=01:47:18.67 bitrate=9927.0kbits/s speed=62.2x    frame=388236 fps=3731 q=-1.0 size= 7837440kB time=01:47:46.72 bitrate=9928.4kbits/s speed=62.1x    frame=389945 fps=3729 q=-1.0 size= 7872768kB time=01:48:15.20 bitrate=9929.4kbits/s speed=62.1x    frame=391688 fps=3728 q=-1.0 size= 7909376kB time=01:48:44.24 bitrate=9931.2kbits/s speed=62.1x    frame=393456 fps=3727 q=-1.0 size= 7945984kB time=01:49:13.69 bitrate=9932.3kbits/s speed=62.1x    frame=395220 fps=3726 q=-1.0 size= 7982592kB time=01:49:43.03 bitrate=9933.6kbits/s speed=62.1x    frame=397291 fps=3728 q=-1.0 size= 8021248kB time=01:50:17.52 bitrate=9929.7kbits/s speed=62.1x    frame=399122 fps=3728 q=-1.0 size= 8059136kB time=01:50:48.04 bitrate=9930.8kbits/s speed=62.1x    frame=401601 fps=3734 q=-1.0 size= 8097024kB time=01:51:29.31 bitrate=9915.9kbits/s speed=62.2x    frame=403372 fps=3733 q=-1.0 size= 8133632kB time=01:51:58.81 bitrate=9917.0kbits/s speed=62.2x    frame=405128 fps=3732 q=-1.0 size= 8170240kB time=01:52:28.09 bitrate=9918.5kbits/s speed=62.2x    frame=407037 fps=3732 q=-1.0 size= 8209664kB time=01:52:59.88 bitrate=9919.6kbits/s speed=62.2x    frame=408939 fps=3732 q=-1.0 size= 8249344kB time=01:53:31.55 bitrate=9921.2kbits/s speed=62.2x    frame=410687 fps=3731 q=-1.0 size= 8285696kB time=01:54:00.70 bitrate=9922.4kbits/s speed=62.2x    frame=412486 fps=3731 q=-1.0 size= 8323072kB time=01:54:30.62 bitrate=9923.8kbits/s speed=62.1x    frame=414377 fps=3731 q=-1.0 size= 8362752kB time=01:55:02.14 bitrate=9925.6kbits/s speed=62.1x    frame=416264 fps=3731 q=-1.0 size= 8401408kB time=01:55:33.56 bitrate=9926.3kbits/s speed=62.1x    frame=418192 fps=3732 q=-1.0 size= 8441856kB time=01:56:05.65 bitrate=9928.1kbits/s speed=62.2x    frame=420048 fps=3731 q=-1.0 size= 8480256kB time=01:56:36.57 bitrate=9929.2kbits/s speed=62.2x    frame=421896 fps=3731 q=-1.0 size= 8518656kB time=01:57:07.39 bitrate=9930.4kbits/s speed=62.2x    frame=423733 fps=3731 q=-1.0 size= 8556800kB time=01:57:37.96 bitrate=9931.7kbits/s speed=62.1x    frame=425836 fps=3733 q=-1.0 size= 8596224kB time=01:58:13.00 bitrate=9928.1kbits/s speed=62.2x    frame=427810 fps=3734 q=-1.0 size= 8634112kB time=01:58:45.87 bitrate=9925.9kbits/s speed=62.2x    frame=429840 fps=3735 q=-1.0 size= 8672512kB time=01:59:19.70 bitrate=9922.9kbits/s speed=62.2x    frame=431737 fps=3736 q=-1.0 size= 8711936kB time=01:59:51.29 bitrate=9924.2kbits/s speed=62.2x    frame=433543 fps=3735 q=-1.0 size= 8749824kB time=02:00:21.37 bitrate=9925.9kbits/s speed=62.2x    frame=435436 fps=3735 q=-1.0 size= 8788992kB time=02:00:52.91 bitrate=9927.0kbits/s speed=62.2x    frame=437327 fps=3735 q=-1.0 size= 8828160kB time=02:01:24.38 bitrate=9928.1kbits/s speed=62.2x    frame=439129 fps=3735 q=-1.0 size= 8865536kB time=02:01:54.39 bitrate=9929.2kbits/s speed=62.2x    frame=440971 fps=3735 q=-1.0 size= 8903936kB time=02:02:25.09 bitrate=9930.6kbits/s speed=62.2x    frame=442822 fps=3734 q=-1.0 size= 8942080kB time=02:02:55.93 bitrate=9931.4kbits/s speed=62.2x    frame=444564 fps=3733 q=-1.0 size= 8978432kB time=02:03:24.97 bitrate=9932.7kbits/s speed=62.2x    frame=446321 fps=3732 q=-1.0 size= 9015040kB time=02:03:54.24 bitrate=9933.9kbits/s speed=62.2x    frame=448190 fps=3732 q=-1.0 size= 9053952kB time=02:04:25.36 bitrate=9935.2kbits/s speed=62.2x    frame=449972 fps=3732 q=-1.0 size= 9090816kB time=02:04:55.04 bitrate=9936.2kbits/s speed=62.2x    frame=451869 fps=3732 q=-1.0 size= 9130240kB time=02:05:26.64 bitrate=9937.4kbits/s speed=62.2x    frame=453924 fps=3734 q=-1.0 size= 9168640kB time=02:06:00.88 bitrate=9934.0kbits/s speed=62.2x    frame=456058 fps=3736 q=-1.0 size= 9206272kB time=02:06:36.41 bitrate=9928.1kbits/s speed=62.2x    frame=457909 fps=3736 q=-1.0 size= 9244672kB time=02:07:07.27 bitrate=9929.2kbits/s speed=62.2x    frame=459988 fps=3737 q=-1.0 size= 9287936kB time=02:07:41.88 bitrate=9930.6kbits/s speed=62.3x    frame=461783 fps=3737 q=-1.0 size= 9325312kB time=02:08:11.81 bitrate=9931.7kbits/s speed=62.2x    frame=463715 fps=3737 q=-1.0 size= 9365504kB time=02:08:43.99 bitrate=9933.0kbits/s speed=62.2x    frame=465577 fps=3737 q=-1.0 size= 9404160kB time=02:09:15.02 bitrate=9934.1kbits/s speed=62.2x    frame=467357 fps=3736 q=-1.0 size= 9441024kB time=02:09:44.63 bitrate=9935.1kbits/s speed=62.2x    frame=469246 fps=3737 q=-1.0 size= 9480192kB time=02:10:16.11 bitrate=9936.1kbits/s speed=62.2x    frame=471144 fps=3737 q=-1.0 size= 9519872kB time=02:10:47.72 bitrate=9937.5kbits/s speed=62.2x    frame=472980 fps=3737 q=-1.0 size= 9557760kB time=02:11:18.32 bitrate=9938.3kbits/s speed=62.2x    frame=474785 fps=3736 q=-1.0 size= 9595648kB time=02:11:48.38 bitrate=9939.8kbits/s speed=62.2x    frame=476735 fps=3737 q=-1.0 size= 9635840kB time=02:12:20.87 bitrate=9940.6kbits/s speed=62.2x    frame=478745 fps=3738 q=-1.0 size= 9677568kB time=02:12:54.32 bitrate=9941.7kbits/s speed=62.3x    frame=480711 fps=3739 q=-1.0 size= 9718528kB time=02:13:27.09 bitrate=9943.0kbits/s speed=62.3x    frame=482452 fps=3738 q=-1.0 size= 9754624kB time=02:13:56.07 bitrate=9943.9kbits/s speed=62.3x    frame=484272 fps=3737 q=-1.0 size= 9792512kB time=02:14:26.41 bitrate=9945.0kbits/s speed=62.2x    frame=486162 fps=3737 q=-1.0 size= 9831680kB time=02:14:57.91 bitrate=9945.9kbits/s speed=62.3x    frame=487870 fps=3736 q=-1.0 size= 9865728kB time=02:15:26.36 bitrate=9945.4kbits/s speed=62.2x    frame=490979 fps=3746 q=-1.0 size= 9908992kB time=02:16:18.17 bitrate=9925.7kbits/s speed=62.4x    frame=495890 fps=3769 q=-1.0 size= 9949440kB time=02:17:39.98 bitrate=9867.5kbits/s speed=62.8x    frame=499047 fps=3778 q=-1.0 size= 9982976kB time=02:18:32.55 bitrate=9838.2kbits/s speed=62.9x    frame=501239 fps=3781 q=-1.0 size=10018048kB time=02:19:09.09 bitrate=9829.5kbits/s speed=  63x    frame=503033 fps=3780 q=-1.0 size=10055424kB time=02:19:38.96 bitrate=9831.1kbits/s speed=  63x    frame=505551 fps=3784 q=-1.0 size=10091264kB time=02:20:20.92 bitrate=9816.9kbits/s speed=  63x    frame=507433 fps=3784 q=-1.0 size=10130432kB time=02:20:52.28 bitrate=9818.5kbits/s speed=  63x    frame=509298 fps=3784 q=-1.0 size=10169088kB time=02:21:23.34 bitrate=9819.8kbits/s speed=  63x    frame=512144 fps=3791 q=-1.0 size=10206208kB time=02:22:10.71 bitrate=9801.0kbits/s speed=63.1x    frame=514912 fps=3798 q=-1.0 size=10242816kB time=02:22:56.82 bitrate=9783.2kbits/s speed=63.3x    frame=517644 fps=3804 q=-1.0 size=10279936kB time=02:23:42.32 bitrate=9766.9kbits/s speed=63.4x    frame=520031 fps=3807 q=-1.0 size=10318848kB time=02:24:22.08 bitrate=9758.9kbits/s speed=63.4x    frame=522494 fps=3811 q=-1.0 size=10356480kB time=02:25:03.07 bitrate=9748.3kbits/s speed=63.5x    frame=524738 fps=3814 q=-1.0 size=10395392kB time=02:25:40.46 bitrate=9743.1kbits/s speed=63.5x    frame=527076 fps=3817 q=-1.0 size=10433280kB time=02:26:19.43 bitrate=9735.2kbits/s speed=63.6x    frame=530854 fps=3830 q=-1.0 size=10469120kB time=02:27:22.35 bitrate=9699.1kbits/s speed=63.8x    frame=533801 fps=3838 q=-1.0 size=10503936kB time=02:28:11.46 bitrate=9677.6kbits/s speed=63.9x    frame=536579 fps=3844 q=-1.0 size=10541312kB time=02:28:57.73 bitrate=9661.8kbits/s speed=  64x    frame=539545 fps=3851 q=-1.0 size=10578176kB time=02:29:47.11 bitrate=9642.3kbits/s speed=64.2x    frame=541707 fps=3853 q=-1.0 size=10613760kB time=02:30:23.14 bitrate=9636.1kbits/s speed=64.2x    frame=544406 fps=3858 q=-1.0 size=10651136kB time=02:31:08.12 bitrate=9622.1kbits/s speed=64.3x    frame=546503 fps=3860 q=-1.0 size=10687744kB time=02:31:43.04 bitrate=9618.1kbits/s speed=64.3x    frame=548692 fps=3861 q=-1.0 size=10725120kB time=02:32:19.50 bitrate=9613.2kbits/s speed=64.3x    frame=551264 fps=3866 q=-1.0 size=10760704kB time=02:33:02.36 bitrate=9600.1kbits/s speed=64.4x    frame=553229 fps=3866 q=-1.0 size=10800384kB time=02:33:35.10 bitrate=9601.3kbits/s speed=64.4x    frame=555581 fps=3869 q=-1.0 size=10836736kB time=02:34:14.28 bitrate=9592.8kbits/s speed=64.4x    frame=557979 fps=3872 q=-1.0 size=10872576kB time=02:34:54.24 bitrate=9583.1kbits/s speed=64.5x    frame=559833 fps=3872 q=-1.0 size=10910976kB time=02:35:25.10 bitrate=9585.2kbits/s speed=64.5x    frame=562178 fps=3874 q=-1.0 size=10948864kB time=02:36:04.18 bitrate=9578.3kbits/s speed=64.5x    frame=564340 fps=3876 q=-1.0 size=10986496kB time=02:36:40.20 bitrate=9574.4kbits/s speed=64.6x    frame=566837 fps=3880 q=-1.0 size=11025152kB time=02:37:21.80 bitrate=9565.8kbits/s speed=64.6x    frame=569141 fps=3882 q=-1.0 size=11062784kB time=02:38:00.22 bitrate=9559.5kbits/s speed=64.7x    frame=573096 fps=3896 q=-1.0 size=11099904kB time=02:39:06.11 bitrate=9525.4kbits/s speed=64.9x    frame=575197 fps=3897 q=-1.0 size=11139328kB time=02:39:41.08 bitrate=9524.3kbits/s speed=64.9x    frame=578087 fps=3903 q=-1.0 size=11176192kB time=02:40:29.25 bitrate=9508.0kbits/s speed=  65x    frame=580304 fps=3905 q=-1.0 size=11213824kB time=02:41:06.18 bitrate=9503.6kbits/s speed=  65x    frame=582809 fps=3909 q=-1.0 size=11250688kB time=02:41:47.91 bitrate=9493.9kbits/s speed=65.1x    frame=584675 fps=3908 q=-1.0 size=11288576kB time=02:42:19.01 bitrate=9495.4kbits/s speed=65.1x    frame=586516 fps=3907 q=-1.0 size=11325440kB time=02:42:49.67 bitrate=9496.5kbits/s speed=65.1x    frame=589210 fps=3912 q=-1.0 size=11365120kB time=02:43:34.57 bitrate=9486.2kbits/s speed=65.2x    frame=591456 fps=3914 q=-1.0 size=11402240kB time=02:44:12.00 bitrate=9481.0kbits/s speed=65.2x    frame=593699 fps=3916 q=-1.0 size=11442688kB time=02:44:49.35 bitrate=9478.7kbits/s speed=65.2x    frame=595805 fps=3917 q=-1.0 size=11482880kB time=02:45:24.42 bitrate=9478.4kbits/s speed=65.2x    frame=597744 fps=3917 q=-1.0 size=11518720kB time=02:45:56.72 bitrate=9477.1kbits/s speed=65.2x    frame=600350 fps=3921 q=-1.0 size=11557888kB time=02:46:40.16 bitrate=9468.1kbits/s speed=65.3x    frame=602656 fps=3923 q=-1.0 size=11596800kB time=02:47:18.58 bitrate=9463.6kbits/s speed=65.4x    frame=605639 fps=3930 q=-1.0 size=11633408kB time=02:48:08.26 bitrate=9446.7kbits/s speed=65.5x    frame=609891 fps=3945 q=-1.0 size=11669248kB time=02:49:19.10 bitrate=9409.7kbits/s speed=65.7x    frame=612561 fps=3949 q=-1.0 size=11705344kB time=02:50:03.57 bitrate=9397.7kbits/s speed=65.8x    frame=615362 fps=3955 q=-1.0 size=11740672kB time=02:50:50.21 bitrate=9383.2kbits/s speed=65.9x    frame=618626 fps=3963 q=-1.0 size=11778304kB time=02:51:44.57 bitrate=9363.6kbits/s speed=  66x    frame=621248 fps=3967 q=-1.0 size=11815424kB time=02:52:28.27 bitrate=9353.4kbits/s speed=66.1x    frame=623843 fps=3971 q=-1.0 size=11852032kB time=02:53:11.52 bitrate=9343.4kbits/s speed=66.1x    frame=626569 fps=3976 q=-1.0 size=11888896kB time=02:53:56.94 bitrate=9331.6kbits/s speed=66.2x    frame=628936 fps=3978 q=-1.0 size=11927296kB time=02:54:36.37 bitrate=9326.5kbits/s speed=66.3x    frame=631615 fps=3982 q=-1.0 size=11964160kB time=02:55:21.02 bitrate=9315.7kbits/s speed=66.3x    frame=633594 fps=3982 q=-1.0 size=12001024kB time=02:55:53.98 bitrate=9315.2kbits/s speed=66.3x    frame=636103 fps=3985 q=-1.0 size=12039424kB time=02:56:35.76 bitrate=9308.1kbits/s speed=66.4x    frame=638010 fps=3985 q=-1.0 size=12075008kB time=02:57:07.54 bitrate=9307.7kbits/s speed=66.4x    frame=640343 fps=3987 q=-1.0 size=12111360kB time=02:57:46.42 bitrate=9301.7kbits/s speed=66.4x    frame=642893 fps=3990 q=-1.0 size=12146688kB time=02:58:28.90 bitrate=9291.9kbits/s speed=66.5x    frame=644794 fps=3990 q=-1.0 size=12182528kB time=02:59:00.58 bitrate=9291.8kbits/s speed=66.5x    frame=647505 fps=3994 q=-1.0 size=12220672kB time=02:59:45.75 bitrate=9281.9kbits/s speed=66.5x    frame=649254 fps=3993 q=-1.0 size=12257024kB time=03:00:14.88 bitrate=9284.4kbits/s speed=66.5x    frame=651074 fps=3992 q=-1.0 size=12294656kB time=03:00:45.19 bitrate=9286.9kbits/s speed=66.5x    frame=653136 fps=3992 q=-1.0 size=12331776kB time=03:01:19.55 bitrate=9285.5kbits/s speed=66.5x    frame=656501 fps=4000 q=-1.0 size=12366848kB time=03:02:15.61 bitrate=9264.2kbits/s speed=66.6x    frame=658897 fps=4003 q=-1.0 size=12403456kB time=03:02:55.52 bitrate=9257.8kbits/s speed=66.7x    frame=661301 fps=4005 q=-1.0 size=12441600kB time=03:03:35.58 bitrate=9252.5kbits/s speed=66.7x    frame=663504 fps=4006 q=-1.0 size=12477952kB time=03:04:12.26 bitrate=9248.7kbits/s speed=66.7x    frame=666069 fps=4010 q=-1.0 size=12515840kB time=03:04:55.02 bitrate=9241.1kbits/s speed=66.8x    frame=668893 fps=4015 q=-1.0 size=12553984kB time=03:05:42.06 bitrate=9230.1kbits/s speed=66.9x    frame=671683 fps=4019 q=-1.0 size=12591616kB time=03:06:28.55 bitrate=9219.3kbits/s speed=  67x    frame=674091 fps=4022 q=-1.0 size=12629248kB time=03:07:08.65 bitrate=9213.8kbits/s speed=  67x    frame=677179 fps=4028 q=-1.0 size=12667648kB time=03:08:00.12 bitrate=9199.7kbits/s speed=67.1x    frame=679623 fps=4031 q=-1.0 size=12703232kB time=03:08:40.80 bitrate=9192.4kbits/s speed=67.1x    frame=682217 fps=4034 q=-1.0 size=12744704kB time=03:09:24.04 bitrate=9187.3kbits/s speed=67.2x    frame=685042 fps=4039 q=-1.0 size=12791040kB time=03:10:11.11 bitrate=9182.6kbits/s speed=67.3x    frame=687709 fps=4043 q=-1.0 size=12832000kB time=03:10:55.51 bitrate=9176.3kbits/s speed=67.3x    frame=690544 fps=4047 q=-1.0 size=12873984kB time=03:11:42.76 bitrate=9168.6kbits/s speed=67.4x    frame=692916 fps=4049 q=-1.0 size=12911616kB time=03:12:22.25 bitrate=9163.9kbits/s speed=67.5x    frame=694827 fps=4049 q=-1.0 size=12946944kB time=03:12:54.09 bitrate=9163.7kbits/s speed=67.4x    frame=696894 fps=4049 q=-1.0 size=12985856kB time=03:13:28.53 bitrate=9164.0kbits/s speed=67.4x    frame=699019 fps=4050 q=-1.0 size=13025536kB time=03:14:03.92 bitrate=9164.0kbits/s speed=67.5x    frame=701623 fps=4053 q=-1.0 size=13060352kB time=03:14:47.31 bitrate=9154.4kbits/s speed=67.5x    frame=703577 fps=4052 q=-1.0 size=13098496kB time=03:15:19.84 bitrate=9155.7kbits/s speed=67.5x    frame=705408 fps=4051 q=-1.0 size=13136640kB time=03:15:50.36 bitrate=9158.5kbits/s speed=67.5x    frame=707126 fps=4050 q=-1.0 size=13170176kB time=03:16:18.99 bitrate=9159.5kbits/s speed=67.5x    frame=710007 fps=4054 q=-1.0 size=13207808kB time=03:17:07.00 bitrate=9148.4kbits/s speed=67.5x    frame=712927 fps=4060 q=-1.0 size=13244416kB time=03:17:55.65 bitrate=9136.2kbits/s speed=67.6x    frame=715467 fps=4062 q=-1.0 size=13280000kB time=03:18:37.95 bitrate=9128.2kbits/s speed=67.7x    frame=717594 fps=4063 q=-1.0 size=13319168kB time=03:19:13.39 bitrate=9128.0kbits/s speed=67.7x    frame=720506 fps=4068 q=-1.0 size=13357568kB time=03:20:01.85 bitrate=9117.4kbits/s speed=67.8x    frame=722959 fps=4070 q=-1.0 size=13393408kB time=03:20:42.70 bitrate=9110.8kbits/s speed=67.8x    frame=725227 fps=4072 q=-1.0 size=13432320kB time=03:21:20.49 bitrate=9108.7kbits/s speed=67.8x    frame=727738 fps=4074 q=-1.0 size=13469440kB time=03:22:02.34 bitrate=9102.3kbits/s speed=67.9x    frame=731047 fps=4081 q=-1.0 size=13504768kB time=03:22:57.43 bitrate=9084.9kbits/s speed=  68x    frame=733510 fps=4084 q=-1.0 size=13543424kB time=03:23:38.47 bitrate=9080.3kbits/s speed=  68x    frame=735426 fps=4083 q=-1.0 size=13583104kB time=03:24:10.40 bitrate=9083.2kbits/s speed=  68x    frame=738011 fps=4086 q=-1.0 size=13617664kB time=03:24:53.48 bitrate=9074.4kbits/s speed=68.1x    frame=740291 fps=4087 q=-1.0 size=13657344kB time=03:25:31.45 bitrate=9072.8kbits/s speed=68.1x    frame=743019 fps=4091 q=-1.0 size=13696256kB time=03:26:16.89 bitrate=9065.3kbits/s speed=68.1x    frame=745762 fps=4095 q=-1.0 size=13730560kB time=03:27:02.58 bitrate=9054.5kbits/s speed=68.2x    frame=748018 fps=4096 q=-1.0 size=13771520kB time=03:27:40.21 bitrate=9054.1kbits/s speed=68.2x    frame=749910 fps=4095 q=-1.0 size=13809920kB time=03:28:11.71 bitrate=9056.5kbits/s speed=68.2x    frame=752230 fps=4097 q=-1.0 size=13851648kB time=03:28:50.34 bitrate=9055.8kbits/s speed=68.2x    frame=754269 fps=4097 q=-1.0 size=13891840kB time=03:29:24.31 bitrate=9057.6kbits/s speed=68.2x    frame=757680 fps=4104 q=-1.0 size=13928960kB time=03:30:21.14 bitrate=9040.9kbits/s speed=68.4x    frame=759584 fps=4103 q=-1.0 size=13965312kB time=03:30:52.87 bitrate=9041.7kbits/s speed=68.3x    frame=761826 fps=4104 q=-1.0 size=14000896kB time=03:31:30.17 bitrate=9038.1kbits/s speed=68.4x    frame=764256 fps=4106 q=-1.0 size=14040064kB time=03:32:10.68 bitrate=9034.6kbits/s speed=68.4x    frame=766279 fps=4106 q=-1.0 size=14075648kB time=03:32:44.37 bitrate=9033.6kbits/s speed=68.4x    frame=769446 fps=4112 q=-1.0 size=14113792kB time=03:33:37.10 bitrate=9020.8kbits/s speed=68.5x    frame=771587 fps=4112 q=-1.0 size=14153216kB time=03:34:12.81 bitrate=9020.8kbits/s speed=68.5x    frame=773574 fps=4112 q=-1.0 size=14188032kB time=03:34:45.92 bitrate=9019.8kbits/s speed=68.5x    frame=775563 fps=4112 q=-1.0 size=14227200kB time=03:35:19.06 bitrate=9021.5kbits/s speed=68.5x    frame=778892 fps=4118 q=-1.0 size=14264320kB time=03:36:14.49 bitrate=9006.4kbits/s speed=68.6x    frame=781842 fps=4123 q=-1.0 size=14299904kB time=03:37:03.67 bitrate=8994.8kbits/s speed=68.7x    frame=784007 fps=4124 q=-1.0 size=14339072kB time=03:37:39.73 bitrate=8994.5kbits/s speed=68.7x    frame=786055 fps=4123 q=-1.0 size=14376704kB time=03:38:13.83 bitrate=8994.6kbits/s speed=68.7x    frame=788236 fps=4124 q=-1.0 size=14413568kB time=03:38:50.20 bitrate=8992.7kbits/s speed=68.7x    frame=790482 fps=4125 q=-1.0 size=14451456kB time=03:39:27.64 bitrate=8990.7kbits/s speed=68.7x    frame=792853 fps=4127 q=-1.0 size=14488832kB time=03:40:07.10 bitrate=8987.0kbits/s speed=68.7x    frame=795010 fps=4127 q=-1.0 size=14527488kB time=03:40:43.05 bitrate=8986.5kbits/s speed=68.7x    frame=796799 fps=4126 q=-1.0 size=14564608kB time=03:41:12.85 bitrate=8989.3kbits/s speed=68.7x    frame=799524 fps=4129 q=-1.0 size=14603520kB time=03:41:58.26 bitrate=8982.6kbits/s speed=68.8x    frame=801207 fps=4127 q=-1.0 size=14638592kB time=03:42:26.28 bitrate=8985.2kbits/s speed=68.7x    frame=803193 fps=4127 q=-1.0 size=14678528kB time=03:42:59.31 bitrate=8987.5kbits/s speed=68.7x    frame=805691 fps=4129 q=-1.0 size=14714624kB time=03:43:40.96 bitrate=8981.6kbits/s speed=68.8x    frame=808190 fps=4131 q=-1.0 size=14751232kB time=03:44:22.58 bitrate=8976.1kbits/s speed=68.8x    frame=810095 fps=4130 q=-1.0 size=14789376kB time=03:44:54.29 bitrate=8978.2kbits/s speed=68.8x    frame=811965 fps=4129 q=-1.0 size=14827264kB time=03:45:25.43 bitrate=8980.5kbits/s speed=68.8x    frame=813663 fps=4127 q=-1.0 size=14862592kB time=03:45:53.74 bitrate=8983.1kbits/s speed=68.8x    frame=816235 fps=4130 q=-1.0 size=14899456kB time=03:46:36.56 bitrate=8977.0kbits/s speed=68.8x    frame=818144 fps=4129 q=-1.0 size=14939136kB time=03:47:08.39 bitrate=8979.9kbits/s speed=68.8x    frame=820263 fps=4130 q=-1.0 size=14979840kB time=03:47:43.68 bitrate=8981.1kbits/s speed=68.8x    frame=823033 fps=4133 q=-1.0 size=15022080kB time=03:48:29.81 bitrate=8976.1kbits/s speed=68.8x    frame=825539 fps=4135 q=-1.0 size=15066368kB time=03:49:11.58 bitrate=8975.2kbits/s speed=68.9x    frame=828144 fps=4138 q=-1.0 size=15104512kB time=03:49:54.97 bitrate=8969.7kbits/s speed=68.9x    frame=830875 fps=4141 q=-1.0 size=15143168kB time=03:50:40.46 bitrate=8963.1kbits/s speed=  69x    frame=832537 fps=4139 q=-1.0 size=15177472kB time=03:51:08.11 bitrate=8965.4kbits/s speed=68.9x    frame=834292 fps=4138 q=-1.0 size=15212544kB time=03:51:37.31 bitrate=8967.3kbits/s speed=68.9x    frame=836154 fps=4137 q=-1.0 size=15250944kB time=03:52:08.35 bitrate=8969.9kbits/s speed=68.9x    frame=838279 fps=4137 q=-1.0 size=15287552kB time=03:52:43.75 bitrate=8968.6kbits/s speed=68.9x    frame=840913 fps=4140 q=-1.0 size=15326720kB time=03:53:27.62 bitrate=8963.4kbits/s speed=  69x    frame=844230 fps=4146 q=-1.0 size=15366656kB time=03:54:22.84 bitrate=8951.5kbits/s speed=69.1x    frame=846383 fps=4146 q=-1.0 size=15405312kB time=03:54:58.69 bitrate=8951.2kbits/s speed=69.1x    frame=849448 fps=4151 q=-1.0 size=15441920kB time=03:55:49.77 bitrate=8940.1kbits/s speed=69.1x    frame=852414 fps=4155 q=-1.0 size=15476736kB time=03:56:39.16 bitrate=8929.1kbits/s speed=69.2x    frame=856354 fps=4164 q=-1.0 size=15514624kB time=03:57:44.81 bitrate=8909.7kbits/s speed=69.4x    frame=858761 fps=4166 q=-1.0 size=15553280kB time=03:58:24.95 bitrate=8906.9kbits/s speed=69.4x    frame=860861 fps=4166 q=-1.0 size=15595776kB time=03:58:59.91 bitrate=8909.4kbits/s speed=69.4x    frame=863168 fps=4167 q=-1.0 size=15636224kB time=03:59:38.37 bitrate=8908.7kbits/s speed=69.4x    frame=865360 fps=4168 q=-1.0 size=15669760kB time=04:00:14.89 bitrate=8905.1kbits/s speed=69.4x    frame=867255 fps=4167 q=-1.0 size=15705600kB time=04:00:46.48 bitrate=8906.0kbits/s speed=69.4x    frame=870479 fps=4172 q=-1.0 size=15743744kB time=04:01:40.16 bitrate=8894.6kbits/s speed=69.5x    frame=873215 fps=4175 q=-1.0 size=15782656kB time=04:02:25.77 bitrate=8888.6kbits/s speed=69.5x    frame=876295 fps=4180 q=-1.0 size=15818752kB time=04:03:17.06 bitrate=8877.6kbits/s speed=69.6x    frame=878902 fps=4182 q=-1.0 size=15856640kB time=04:04:00.51 bitrate=8872.5kbits/s speed=69.7x    frame=881104 fps=4183 q=-1.0 size=15896320kB time=04:04:37.20 bitrate=8872.4kbits/s speed=69.7x    frame=883019 fps=4182 q=-1.0 size=15934464kB time=04:05:09.08 bitrate=8874.5kbits/s speed=69.7x    frame=885174 fps=4182 q=-1.0 size=15974912kB time=04:05:45.01 bitrate=8875.3kbits/s speed=69.7x    frame=887546 fps=4184 q=-1.0 size=16013824kB time=04:06:24.52 bitrate=8873.1kbits/s speed=69.7x    frame=889498 fps=4183 q=-1.0 size=16052224kB time=04:06:57.05 bitrate=8874.9kbits/s speed=69.7x    frame=891610 fps=4183 q=-1.0 size=16091648kB time=04:07:32.23 bitrate=8875.6kbits/s speed=69.7x    frame=894262 fps=4186 q=-1.0 size=16131328kB time=04:08:16.41 bitrate=8871.1kbits/s speed=69.7x    frame=896310 fps=4185 q=-1.0 size=16168704kB time=04:08:50.53 bitrate=8871.4kbits/s speed=69.7x    frame=898430 fps=4186 q=-1.0 size=16208640kB time=04:09:25.85 bitrate=8872.3kbits/s speed=69.7x    frame=900450 fps=4185 q=-1.0 size=16247040kB time=04:09:59.48 bitrate=8873.4kbits/s speed=69.7x    frame=903015 fps=4187 q=-1.0 size=16285440kB time=04:10:42.22 bitrate=8869.1kbits/s speed=69.8x    frame=904867 fps=4186 q=-1.0 size=16322560kB time=04:11:13.09 bitrate=8871.1kbits/s speed=69.7x    frame=906746 fps=4185 q=-1.0 size=16361216kB time=04:11:44.38 bitrate=8873.7kbits/s speed=69.7x    frame=908794 fps=4185 q=-1.0 size=16398848kB time=04:12:18.53 bitrate=8874.0kbits/s speed=69.7x    frame=912167 fps=4191 q=-1.0 size=16437760kB time=04:13:14.71 bitrate=8862.2kbits/s speed=69.8x    frame=914617 fps=4193 q=-1.0 size=16475392kB time=04:13:55.49 bitrate=8858.7kbits/s speed=69.8x    frame=916943 fps=4194 q=-1.0 size=16511488kB time=04:14:34.23 bitrate=8855.6kbits/s speed=69.9x    frame=919409 fps=4195 q=-1.0 size=16551936kB time=04:15:15.35 bitrate=8853.4kbits/s speed=69.9x    frame=921746 fps=4196 q=-1.0 size=16588288kB time=04:15:54.29 bitrate=8850.4kbits/s speed=69.9x    frame=924039 fps=4197 q=-1.0 size=16628480kB time=04:16:32.47 bitrate=8849.8kbits/s speed=69.9x    frame=927030 fps=4201 q=-1.0 size=16667136kB time=04:17:22.30 bitrate=8841.8kbits/s speed=  70x    frame=929113 fps=4201 q=-1.0 size=16704000kB time=04:17:56.97 bitrate=8841.5kbits/s speed=  70x    frame=931033 fps=4200 q=-1.0 size=16743680kB time=04:18:28.99 bitrate=8844.2kbits/s speed=  70x    frame=933607 fps=4202 q=-1.0 size=16780032kB time=04:19:11.86 bitrate=8838.9kbits/s speed=  70x    frame=936492 fps=4206 q=-1.0 size=16816384kB time=04:19:59.91 bitrate=8830.8kbits/s speed=70.1x    frame=938715 fps=4207 q=-1.0 size=16856832kB time=04:20:36.97 bitrate=8831.1kbits/s speed=70.1x    frame=941447 fps=4209 q=-1.0 size=16893952kB time=04:21:22.45 bitrate=8824.8kbits/s speed=70.1x    frame=943639 fps=4210 q=-1.0 size=16931072kB time=04:21:59.02 bitrate=8823.7kbits/s speed=70.1x    frame=947097 fps=4216 q=-1.0 size=16968960kB time=04:22:56.62 bitrate=8811.1kbits/s speed=70.2x    frame=949236 fps=4216 q=-1.0 size=17007104kB time=04:23:32.25 bitrate=8811.0kbits/s speed=70.2x    frame=951545 fps=4217 q=-1.0 size=17045248kB time=04:24:10.72 bitrate=8809.4kbits/s speed=70.2x    frame=953929 fps=4218 q=-1.0 size=17084160kB time=04:24:50.43 bitrate=8807.4kbits/s speed=70.3x    frame=956209 fps=4219 q=-1.0 size=17122816kB time=04:25:28.41 bitrate=8806.3kbits/s speed=70.3x    frame=959053 fps=4222 q=-1.0 size=17160960kB time=04:26:15.80 bitrate=8799.7kbits/s speed=70.3x    frame=961794 fps=4225 q=-1.0 size=17201408kB time=04:27:01.43 bitrate=8795.3kbits/s speed=70.4x    frame=964960 fps=4229 q=-1.0 size=17238784kB time=04:27:54.20 bitrate=8785.5kbits/s speed=70.5x    frame=967273 fps=4230 q=-1.0 size=17280256kB time=04:28:32.74 bitrate=8785.6kbits/s speed=70.5x    frame=969787 fps=4232 q=-1.0 size=17318656kB time=04:29:14.63 bitrate=8782.3kbits/s speed=70.5x    frame=972219 fps=4233 q=-1.0 size=17355776kB time=04:29:55.13 bitrate=8779.1kbits/s speed=70.5x    frame=974831 fps=4235 q=-1.0 size=17395456kB time=04:30:38.61 bitrate=8775.6kbits/s speed=70.6x    frame=976875 fps=4235 q=-1.0 size=17434624kB time=04:31:12.67 bitrate=8776.9kbits/s speed=70.5x    frame=979734 fps=4238 q=-1.0 size=17471744kB time=04:32:00.33 bitrate=8770.0kbits/s speed=70.6x    frame=982125 fps=4239 q=-1.0 size=17509120kB time=04:32:40.17 bitrate=8767.3kbits/s speed=70.6x    frame=983965 fps=4238 q=-1.0 size=17547264kB time=04:33:10.80 bitrate=8770.0kbits/s speed=70.6x    frame=986068 fps=4238 q=-1.0 size=17584640kB time=04:33:45.86 bitrate=8769.9kbits/s speed=70.6x    frame=988548 fps=4240 q=-1.0 size=17625344kB time=04:34:27.19 bitrate=8768.2kbits/s speed=70.6x    frame=990375 fps=4238 q=-1.0 size=17663232kB time=04:34:57.62 bitrate=8770.8kbits/s speed=70.6x    frame=993375 fps=4242 q=-1.0 size=17699840kB time=04:35:47.62 bitrate=8762.4kbits/s speed=70.7x    frame=996399 fps=4246 q=-1.0 size=17737472kB time=04:36:37.96 bitrate=8754.4kbits/s speed=70.7x    frame=998690 fps=4247 q=-1.0 size=17774592kB time=04:37:16.12 bitrate=8752.6kbits/s speed=70.7x    frame=1001394 fps=4249 q=-1.0 size=17811968kB time=04:38:01.20 bitrate=8747.3kbits/s speed=70.8x    frame=1004285 fps=4252 q=-1.0 size=17849856kB time=04:38:49.35 bitrate=8740.7kbits/s speed=70.8x    frame=1007686 fps=4258 q=-1.0 size=17884672kB time=04:39:46.03 bitrate=8728.2kbits/s speed=70.9x    frame=1011073 fps=4263 q=-1.0 size=17920512kB time=04:40:42.45 bitrate=8716.4kbits/s speed=  71x    frame=1013753 fps=4265 q=-1.0 size=17961728kB time=04:41:27.10 bitrate=8713.3kbits/s speed=71.1x    frame=1016538 fps=4268 q=-1.0 size=17999360kB time=04:42:13.51 bitrate=8707.6kbits/s speed=71.1x    frame=1019184 fps=4270 q=-1.0 size=18038272kB time=04:42:57.55 bitrate=8703.8kbits/s speed=71.1x    frame=1021437 fps=4271 q=-1.0 size=18077952kB time=04:43:35.08 bitrate=8703.7kbits/s speed=71.1x    frame=1023903 fps=4272 q=-1.0 size=18117888kB time=04:44:16.19 bitrate=8701.9kbits/s speed=71.2x    frame=1026223 fps=4273 q=-1.0 size=18156544kB time=04:44:54.79 bitrate=8700.8kbits/s speed=71.2x    frame=1029192 fps=4276 q=-1.0 size=18194944kB time=04:45:44.27 bitrate=8694.0kbits/s speed=71.2x    frame=1031689 fps=4278 q=-1.0 size=18234368kB time=04:46:25.86 bitrate=8691.8kbits/s speed=71.3x    frame=1034448 fps=4280 q=-1.0 size=18270720kB time=04:47:11.83 bitrate=8685.9kbits/s speed=71.3x    frame=1036724 fps=4281 q=-1.0 size=18310656kB time=04:47:49.75 bitrate=8685.8kbits/s speed=71.3x    frame=1038886 fps=4281 q=-1.0 size=18347520kB time=04:48:25.76 bitrate=8685.1kbits/s speed=71.3x    frame=1041595 fps=4283 q=-1.0 size=18385920kB time=04:49:10.92 bitrate=8680.7kbits/s speed=71.4x    frame=1044080 fps=4285 q=-1.0 size=18430208kB time=04:49:52.28 bitrate=8680.9kbits/s speed=71.4x    frame=1046907 fps=4287 q=-1.0 size=18469888kB time=04:50:39.39 bitrate=8676.1kbits/s speed=71.4x    frame=1049614 fps=4290 q=-1.0 size=18511360kB time=04:51:24.46 bitrate=8673.1kbits/s speed=71.5x    frame=1052812 fps=4294 q=-1.0 size=18554880kB time=04:52:17.76 bitrate=8667.1kbits/s speed=71.5x    frame=1055785 fps=4297 q=-1.0 size=18595584kB time=04:53:07.28 bitrate=8661.7kbits/s speed=71.6x    frame=1058667 fps=4300 q=-1.0 size=18631936kB time=04:53:55.25 bitrate=8655.0kbits/s speed=71.6x    frame=1061175 fps=4302 q=-1.0 size=18665984kB time=04:54:37.06 bitrate=8650.3kbits/s speed=71.7x    frame=1062951 fps=4300 q=-1.0 size=18702592kB time=04:55:06.61 bitrate=8652.8kbits/s speed=71.6x    frame=1065301 fps=4301 q=-1.0 size=18739456kB time=04:55:45.79 bitrate=8650.7kbits/s speed=71.6x    frame=1067231 fps=4300 q=-1.0 size=18779392kB time=04:56:17.95 bitrate=8653.5kbits/s speed=71.6x    frame=1069850 fps=4302 q=-1.0 size=18823680kB time=04:57:01.59 bitrate=8652.6kbits/s speed=71.7x    frame=1071919 fps=4302 q=-1.0 size=18865408kB time=04:57:36.02 bitrate=8655.1kbits/s speed=71.7x    frame=1074621 fps=4304 q=-1.0 size=18905344kB time=04:58:21.02 bitrate=8651.6kbits/s speed=71.7x    frame=1076648 fps=4303 q=-1.0 size=18941952kB time=04:58:54.83 bitrate=8652.0kbits/s speed=71.7x    frame=1079709 fps=4307 q=-1.0 size=18981888kB time=04:59:45.82 bitrate=8645.7kbits/s speed=71.7x    frame=1081519 fps=4306 q=-1.0 size=19019520kB time=05:00:15.98 bitrate=8648.3kbits/s speed=71.7x    frame=1083995 fps=4307 q=-1.0 size=19056640kB time=05:00:57.25 bitrate=8645.4kbits/s speed=71.7x    frame=1086077 fps=4307 q=-1.0 size=19097600kB time=05:01:31.91 bitrate=8647.4kbits/s speed=71.7x    frame=1088021 fps=4306 q=-1.0 size=19137792kB time=05:02:04.30 bitrate=8650.1kbits/s speed=71.7x    frame=1090690 fps=4308 q=-1.0 size=19174400kB time=05:02:48.79 bitrate=8645.4kbits/s speed=71.8x    frame=1092876 fps=4308 q=-1.0 size=19212032kB time=05:03:25.18 bitrate=8645.1kbits/s speed=71.8x    frame=1094891 fps=4307 q=-1.0 size=19254016kB time=05:03:58.75 bitrate=8648.0kbits/s speed=71.8x    frame=1097352 fps=4309 q=-1.0 size=19290624kB time=05:04:39.74 bitrate=8645.0kbits/s speed=71.8x    frame=1099442 fps=4308 q=-1.0 size=19328256kB time=05:05:14.56 bitrate=8645.4kbits/s speed=71.8x    frame=1101676 fps=4309 q=-1.0 size=19367424kB time=05:05:51.76 bitrate=8645.4kbits/s speed=71.8x    frame=1103554 fps=4308 q=-1.0 size=19403520kB time=05:06:23.03 bitrate=8646.8kbits/s speed=71.8x    frame=1105635 fps=4307 q=-1.0 size=19441664kB time=05:06:57.71 bitrate=8647.4kbits/s speed=71.8x    frame=1107988 fps=4308 q=-1.0 size=19482368kB time=05:07:36.90 bitrate=8647.1kbits/s speed=71.8x    frame=1110119 fps=4308 q=-1.0 size=19521280kB time=05:08:12.43 bitrate=8647.8kbits/s speed=71.8x    frame=1112489 fps=4309 q=-1.0 size=19561472kB time=05:08:51.94 bitrate=8647.1kbits/s speed=71.8x    frame=1114521 fps=4308 q=-1.0 size=19600896kB time=05:09:25.77 bitrate=8648.7kbits/s speed=71.8x    frame=1116738 fps=4308 q=-1.0 size=19638784kB time=05:10:02.70 bitrate=8648.3kbits/s speed=71.8x    frame=1118804 fps=4308 q=-1.0 size=19679488kB time=05:10:37.15 bitrate=8650.2kbits/s speed=71.8x    frame=1121791 fps=4311 q=-1.0 size=19718656kB time=05:11:26.90 bitrate=8644.3kbits/s speed=71.8x    frame=1124126 fps=4312 q=-1.0 size=19756544kB time=05:12:05.77 bitrate=8642.9kbits/s speed=71.8x    frame=1126511 fps=4313 q=-1.0 size=19794944kB time=05:12:45.50 bitrate=8641.4kbits/s speed=71.8x    frame=1129213 fps=4315 q=-1.0 size=19834880kB time=05:13:30.54 bitrate=8638.1kbits/s speed=71.9x    frame=1131328 fps=4315 q=-1.0 size=19872768kB time=05:14:05.79 bitrate=8638.4kbits/s speed=71.9x    frame=1134461 fps=4318 q=-1.0 size=19909888kB time=05:14:57.94 bitrate=8630.7kbits/s speed=71.9x    frame=1137772 fps=4323 q=-1.0 size=19947520kB time=05:15:53.11 bitrate=8621.8kbits/s speed=  72x    frame=1140432 fps=4325 q=-1.0 size=19983104kB time=05:16:37.40 bitrate=8617.1kbits/s speed=  72x    frame=1142621 fps=4325 q=-1.0 size=20021760kB time=05:17:13.89 bitrate=8617.2kbits/s speed=  72x    frame=1145174 fps=4326 q=-1.0 size=20059904kB time=05:17:56.43 bitrate=8614.3kbits/s speed=72.1x    frame=1147126 fps=4325 q=-1.0 size=20097280kB time=05:18:28.95 bitrate=8615.7kbits/s speed=72.1x    frame=1149241 fps=4325 q=-1.0 size=20135168kB time=05:19:04.15 bitrate=8616.1kbits/s speed=72.1x    frame=1152006 fps=4328 q=-1.0 size=20174848kB time=05:19:50.24 bitrate=8612.3kbits/s speed=72.1x    frame=1154000 fps=4327 q=-1.0 size=20211968kB time=05:20:23.42 bitrate=8613.3kbits/s speed=72.1x    frame=1156721 fps=4329 q=-1.0 size=20251136kB time=05:21:08.77 bitrate=8609.6kbits/s speed=72.1x    frame=1159509 fps=4331 q=-1.0 size=20288768kB time=05:21:55.22 bitrate=8604.9kbits/s speed=72.2x    frame=1162103 fps=4333 q=-1.0 size=20326144kB time=05:22:38.41 bitrate=8601.5kbits/s speed=72.2x    frame=1167869 fps=4346 q=-1.0 size=20364544kB time=05:24:14.43 bitrate=8575.2kbits/s speed=72.4x    frame=1171542 fps=4352 q=-1.0 size=20403712kB time=05:25:15.65 bitrate=8564.8kbits/s speed=72.5x    frame=1173408 fps=4351 q=-1.0 size=20442368kB time=05:25:46.74 bitrate=8567.4kbits/s speed=72.5x    frame=1175354 fps=4350 q=-1.0 size=20482816kB time=05:26:19.16 bitrate=8570.1kbits/s speed=72.5x    frame=1177263 fps=4349 q=-1.0 size=20522496kB time=05:26:50.96 bitrate=8572.8kbits/s speed=72.4x    frame=1179090 fps=4348 q=-1.0 size=20560128kB time=05:27:21.40 bitrate=8575.2kbits/s speed=72.4x    frame=1180957 fps=4346 q=-1.0 size=20597760kB time=05:27:52.47 bitrate=8577.3kbits/s speed=72.4x    frame=1182791 fps=4345 q=-1.0 size=20635904kB time=05:28:23.02 bitrate=8579.9kbits/s speed=72.4x    frame=1184735 fps=4344 q=-1.0 size=20676352kB time=05:28:55.41 bitrate=8582.6kbits/s speed=72.4x    frame=1186571 fps=4343 q=-1.0 size=20712960kB time=05:29:25.99 bitrate=8584.5kbits/s speed=72.3x    frame=1188770 fps=4343 q=-1.0 size=20752384kB time=05:30:02.60 bitrate=8584.9kbits/s speed=72.3x    frame=1190851 fps=4343 q=-1.0 size=20795392kB time=05:30:37.29 bitrate=8587.7kbits/s speed=72.3x    frame=1192816 fps=4342 q=-1.0 size=20834816kB time=05:31:09.99 bitrate=8589.8kbits/s speed=72.3x    frame=1194777 fps=4341 q=-1.0 size=20875520kB time=05:31:42.67 bitrate=8592.4kbits/s speed=72.3x    frame=1196647 fps=4340 q=-1.0 size=20914432kB time=05:32:13.84 bitrate=8595.0kbits/s speed=72.3x    frame=1198502 fps=4339 q=-1.0 size=20951552kB time=05:32:44.74 bitrate=8596.9kbits/s speed=72.3x    frame=1200574 fps=4339 q=-1.0 size=20990720kB time=05:33:19.25 bitrate=8598.1kbits/s speed=72.3x    frame=1202605 fps=4338 q=-1.0 size=21031168kB time=05:33:53.09 bitrate=8600.1kbits/s speed=72.3x    frame=1204402 fps=4337 q=-1.0 size=21068544kB time=05:34:23.02 bitrate=8602.6kbits/s speed=72.2x    frame=1206302 fps=4336 q=-1.0 size=21108224kB time=05:34:54.67 bitrate=8605.2kbits/s speed=72.2x    frame=1208212 fps=4335 q=-1.0 size=21147904kB time=05:35:26.46 bitrate=8607.8kbits/s speed=72.2x    frame=1210532 fps=4335 q=-1.0 size=21187072kB time=05:36:05.11 bitrate=8607.2kbits/s speed=72.2x    frame=1212791 fps=4336 q=-1.0 size=21227520kB time=05:36:42.74 bitrate=8607.5kbits/s speed=72.2x    frame=1214747 fps=4335 q=-1.0 size=21267712kB time=05:37:15.31 bitrate=8610.0kbits/s speed=72.2x    frame=1216574 fps=4334 q=-1.0 size=21305344kB time=05:37:45.74 bitrate=8612.2kbits/s speed=72.2x    frame=1218516 fps=4333 q=-1.0 size=21345280kB time=05:38:18.07 bitrate=8614.6kbits/s speed=72.2x    frame=1220533 fps=4332 q=-1.0 size=21386752kB time=05:38:51.68 bitrate=8617.1kbits/s speed=72.2x    frame=1222247 fps=4331 q=-1.0 size=21422336kB time=05:39:20.23 bitrate=8619.3kbits/s speed=72.1x    frame=1224194 fps=4330 q=-1.0 size=21462784kB time=05:39:52.62 bitrate=8621.9kbits/s speed=72.1x    frame=1226124 fps=4329 q=-1.0 size=21502976kB time=05:40:24.78 bitrate=8624.4kbits/s speed=72.1x    frame=1228108 fps=4329 q=-1.0 size=21542656kB time=05:40:57.82 bitrate=8626.4kbits/s speed=72.1x    frame=1230033 fps=4328 q=-1.0 size=21582848kB time=05:41:29.91 bitrate=8629.0kbits/s speed=72.1x    frame=1231770 fps=4326 q=-1.0 size=21618944kB time=05:41:58.82 bitrate=8631.2kbits/s speed=72.1x    frame=1233497 fps=4325 q=-1.0 size=21654784kB time=05:42:27.58 bitrate=8633.4kbits/s speed=  72x    frame=1235400 fps=4324 q=-1.0 size=21694464kB time=05:42:59.30 bitrate=8635.9kbits/s speed=  72x    frame=1237519 fps=4324 q=-1.0 size=21734656kB time=05:43:34.59 bitrate=8637.1kbits/s speed=  72x    frame=1239326 fps=4322 q=-1.0 size=21772288kB time=05:44:04.69 bitrate=8639.4kbits/s speed=  72x    frame=1241335 fps=4322 q=-1.0 size=21814016kB time=05:44:38.15 bitrate=8642.0kbits/s speed=  72x    frame=1243261 fps=4321 q=-1.0 size=21853952kB time=05:45:10.19 bitrate=8644.4kbits/s speed=  72x    frame=1245188 fps=4320 q=-1.0 size=21894144kB time=05:45:42.33 bitrate=8646.9kbits/s speed=  72x    frame=1247126 fps=4319 q=-1.0 size=21934336kB time=05:46:14.59 bitrate=8649.3kbits/s speed=  72x    frame=1249146 fps=4319 q=-1.0 size=21976064kB time=05:46:48.20 bitrate=8651.8kbits/s speed=71.9x    frame=1250947 fps=4318 q=-1.0 size=22013440kB time=05:47:18.24 bitrate=8654.0kbits/s speed=71.9x    frame=1252886 fps=4317 q=-1.0 size=22053632kB time=05:47:50.54 bitrate=8656.4kbits/s speed=71.9x    frame=1254823 fps=4316 q=-1.0 size=22094080kB time=05:48:22.80 bitrate=8658.9kbits/s speed=71.9x    frame=1256550 fps=4315 q=-1.0 size=22129920kB time=05:48:51.54 bitrate=8661.0kbits/s speed=71.9x    frame=1258578 fps=4314 q=-1.0 size=22171904kB time=05:49:25.35 bitrate=8663.4kbits/s speed=71.9x    frame=1260594 fps=4314 q=-1.0 size=22213632kB time=05:49:58.93 bitrate=8665.9kbits/s speed=71.9x    frame=1262431 fps=4313 q=-1.0 size=22251776kB time=05:50:29.52 bitrate=8668.1kbits/s speed=71.8x    frame=1264378 fps=4312 q=-1.0 size=22292224kB time=05:51:01.95 bitrate=8670.5kbits/s speed=71.8x    frame=1266385 fps=4311 q=-1.0 size=22333952kB time=05:51:35.39 bitrate=8673.0kbits/s speed=71.8x    frame=1268057 fps=4310 q=-1.0 size=22368768kB time=05:52:03.20 bitrate=8675.1kbits/s speed=71.8x    frame=1270089 fps=4309 q=-1.0 size=22410240kB time=05:52:37.06 bitrate=8677.2kbits/s speed=71.8x    frame=1271967 fps=4308 q=-1.0 size=22449408kB time=05:53:08.32 bitrate=8679.6kbits/s speed=71.8x    frame=1273736 fps=4307 q=-1.0 size=22486016kB time=05:53:37.80 bitrate=8681.6kbits/s speed=71.7x    frame=1275654 fps=4306 q=-1.0 size=22525952kB time=05:54:09.73 bitrate=8684.0kbits/s speed=71.7x    frame=1277329 fps=4305 q=-1.0 size=22560768kB time=05:54:37.64 bitrate=8686.0kbits/s speed=71.7x    frame=1279191 fps=4304 q=-1.0 size=22599680kB time=05:55:08.64 bitrate=8688.3kbits/s speed=71.7x    frame=1280921 fps=4302 q=-1.0 size=22635264kB time=05:55:37.44 bitrate=8690.3kbits/s speed=71.7x    frame=1282700 fps=4301 q=-1.0 size=22672384kB time=05:56:07.08 bitrate=8692.4kbits/s speed=71.6x    frame=1284383 fps=4299 q=-1.0 size=22707200kB time=05:56:35.12 bitrate=8694.4kbits/s speed=71.6x    frame=1286155 fps=4298 q=-1.0 size=22742528kB time=05:57:04.61 bitrate=8695.9kbits/s speed=71.6x    frame=1287782 fps=4296 q=-1.0 size=22775808kB time=05:57:31.69 bitrate=8697.7kbits/s speed=71.6x    frame=1289451 fps=4295 q=-1.0 size=22810624kB time=05:57:59.50 bitrate=8699.7kbits/s speed=71.5x    frame=1291134 fps=4293 q=-1.0 size=22845440kB time=05:58:27.55 bitrate=8701.6kbits/s speed=71.5x    frame=1292739 fps=4291 q=-1.0 size=22878720kB time=05:58:54.31 bitrate=8703.4kbits/s speed=71.5x    frame=1294458 fps=4290 q=-1.0 size=22914304kB time=05:59:22.93 bitrate=8705.4kbits/s speed=71.5x    frame=1296315 fps=4289 q=-1.0 size=22952960kB time=05:59:53.86 bitrate=8707.6kbits/s speed=71.4x    frame=1298201 fps=4288 q=-1.0 size=22992128kB time=06:00:25.24 bitrate=8709.8kbits/s speed=71.4x    frame=1300144 fps=4288 q=-1.0 size=23032320kB time=06:00:57.60 bitrate=8712.0kbits/s speed=71.4x    frame=1302351 fps=4288 q=-1.0 size=23078144kB time=06:01:34.33 bitrate=8714.5kbits/s speed=71.4x    frame=1304550 fps=4288 q=-1.0 size=23123968kB time=06:02:10.96 bitrate=8717.1kbits/s speed=71.4x    frame=1306809 fps=4288 q=-1.0 size=23170560kB time=06:02:48.59 bitrate=8719.6kbits/s speed=71.4x    frame=1308698 fps=4287 q=-1.0 size=23209984kB time=06:03:20.05 bitrate=8721.8kbits/s speed=71.4x    frame=1310663 fps=4287 q=-1.0 size=23250432kB time=06:03:52.81 bitrate=8723.9kbits/s speed=71.4x    frame=1312624 fps=4286 q=-1.0 size=23291392kB time=06:04:25.46 bitrate=8726.2kbits/s speed=71.4x    frame=1314434 fps=4285 q=-1.0 size=23329024kB time=06:04:55.59 bitrate=8728.3kbits/s speed=71.4x    frame=1316269 fps=4284 q=-1.0 size=23366912kB time=06:05:26.17 bitrate=8730.3kbits/s speed=71.4x    frame=1318191 fps=4283 q=-1.0 size=23406848kB time=06:05:58.18 bitrate=8732.5kbits/s speed=71.4x    frame=1320087 fps=4283 q=-1.0 size=23446016kB time=06:06:29.79 bitrate=8734.5kbits/s speed=71.3x    frame=1322007 fps=4282 q=-1.0 size=23485440kB time=06:07:01.78 bitrate=8736.5kbits/s speed=71.3x    frame=1324134 fps=4282 q=-1.0 size=23529728kB time=06:07:37.16 bitrate=8738.9kbits/s speed=71.3x    frame=1325959 fps=4281 q=-1.0 size=23566336kB time=06:08:07.58 bitrate=8740.4kbits/s speed=71.3x    frame=1327976 fps=4280 q=-1.0 size=23606528kB time=06:08:41.16 bitrate=8742.1kbits/s speed=71.3x    frame=1329913 fps=4280 q=-1.0 size=23646720kB time=06:09:13.39 bitrate=8744.2kbits/s speed=71.3x    frame=1331815 fps=4279 q=-1.0 size=23686144kB time=06:09:45.09 bitrate=8746.3kbits/s speed=71.3x    frame=1333721 fps=4278 q=-1.0 size=23725824kB time=06:10:16.85 bitrate=8748.4kbits/s speed=71.3x    frame=1335615 fps=4277 q=-1.0 size=23765248kB time=06:10:48.41 bitrate=8750.5kbits/s speed=71.3x    frame=1337393 fps=4276 q=-1.0 size=23801856kB time=06:11:18.00 bitrate=8752.3kbits/s speed=71.2x    frame=1339302 fps=4276 q=-1.0 size=23841536kB time=06:11:49.82 bitrate=8754.4kbits/s speed=71.2x    frame=1341158 fps=4275 q=-1.0 size=23879936kB time=06:12:20.71 bitrate=8756.4kbits/s speed=71.2x    frame=1342820 fps=4273 q=-1.0 size=23914496kB time=06:12:48.42 bitrate=8758.2kbits/s speed=71.2x    frame=1344603 fps=4272 q=-1.0 size=23951616kB time=06:13:18.11 bitrate=8760.2kbits/s speed=71.2x    frame=1346411 fps=4271 q=-1.0 size=23988992kB time=06:13:48.21 bitrate=8762.1kbits/s speed=71.1x    frame=1348113 fps=4270 q=-1.0 size=24024320kB time=06:14:16.59 bitrate=8763.9kbits/s speed=71.1x    frame=1349926 fps=4269 q=-1.0 size=24061952kB time=06:14:46.77 bitrate=8765.8kbits/s speed=71.1x    frame=1351769 fps=4268 q=-1.0 size=24100096kB time=06:15:17.48 bitrate=8767.8kbits/s speed=71.1x    frame=1353516 fps=4266 q=-1.0 size=24136448kB time=06:15:46.60 bitrate=8769.6kbits/s speed=71.1x    frame=1355290 fps=4265 q=-1.0 size=24173312kB time=06:16:16.14 bitrate=8771.5kbits/s speed=  71x    frame=1357234 fps=4265 q=-1.0 size=24213504kB time=06:16:48.51 bitrate=8773.6kbits/s speed=  71x    frame=1358974 fps=4263 q=-1.0 size=24249600kB time=06:17:17.48 bitrate=8775.4kbits/s speed=  71x    frame=1360939 fps=4263 q=-1.0 size=24290304kB time=06:17:50.19 bitrate=8777.4kbits/s speed=  71x    frame=1362925 fps=4262 q=-1.0 size=24331520kB time=06:18:23.30 bitrate=8779.5kbits/s speed=  71x    frame=1364803 fps=4262 q=-1.0 size=24370432kB time=06:18:54.56 bitrate=8781.5kbits/s speed=  71x    frame=1366786 fps=4261 q=-1.0 size=24411392kB time=06:19:27.59 bitrate=8783.5kbits/s speed=  71x    frame=1368885 fps=4261 q=-1.0 size=24455168kB time=06:20:02.56 bitrate=8785.7kbits/s speed=  71x    frame=1370677 fps=4260 q=-1.0 size=24492544kB time=06:20:32.41 bitrate=8787.6kbits/s speed=  71x    frame=1372621 fps=4259 q=-1.0 size=24532736kB time=06:21:04.79 bitrate=8789.6kbits/s speed=  71x    frame=1374598 fps=4259 q=-1.0 size=24573440kB time=06:21:37.68 bitrate=8791.5kbits/s speed=70.9x    frame=1376471 fps=4258 q=-1.0 size=24612608kB time=06:22:08.91 bitrate=8793.5kbits/s speed=70.9x    frame=1378421 fps=4258 q=-1.0 size=24653056kB time=06:22:41.39 bitrate=8795.5kbits/s speed=70.9x    frame=1380358 fps=4257 q=-1.0 size=24692992kB time=06:23:13.63 bitrate=8797.4kbits/s speed=70.9x    frame=1382246 fps=4256 q=-1.0 size=24732416kB time=06:23:45.09 bitrate=8799.4kbits/s speed=70.9x    frame=1384166 fps=4256 q=-1.0 size=24772096kB time=06:24:17.06 bitrate=8801.3kbits/s speed=70.9x    frame=1386152 fps=4255 q=-1.0 size=24813312kB time=06:24:50.16 bitrate=8803.3kbits/s speed=70.9x    frame=1387961 fps=4254 q=-1.0 size=24850944kB time=06:25:20.29 bitrate=8805.2kbits/s speed=70.9x    frame=1389890 fps=4254 q=-1.0 size=24890880kB time=06:25:52.38 bitrate=8807.1kbits/s speed=70.9x    frame=1391849 fps=4253 q=-1.0 size=24931584kB time=06:26:25.03 bitrate=8809.1kbits/s speed=70.8x    frame=1393659 fps=4252 q=-1.0 size=24968960kB time=06:26:55.18 bitrate=8810.9kbits/s speed=70.8x    frame=1395597 fps=4252 q=-1.0 size=25008896kB time=06:27:27.47 bitrate=8812.7kbits/s speed=70.8x    frame=1397425 fps=4251 q=-1.0 size=25047296kB time=06:27:57.91 bitrate=8814.7kbits/s speed=70.8x    frame=1399546 fps=4251 q=-1.0 size=25091072kB time=06:28:33.24 bitrate=8816.7kbits/s speed=70.8x    frame=1401657 fps=4251 q=-1.0 size=25134848kB time=06:29:08.40 bitrate=8818.8kbits/s speed=70.8x    frame=1403564 fps=4250 q=-1.0 size=25174528kB time=06:29:40.14 bitrate=8820.7kbits/s speed=70.8x    frame=1405538 fps=4249 q=-1.0 size=25215232kB time=06:30:12.98 bitrate=8822.6kbits/s speed=70.8x    frame=1407464 fps=4249 q=-1.0 size=25255168kB time=06:30:45.09 bitrate=8824.5kbits/s speed=70.8x    frame=1409307 fps=4248 q=-1.0 size=25293056kB time=06:31:15.78 bitrate=8826.1kbits/s speed=70.8x    frame=1411065 fps=4247 q=-1.0 size=25329664kB time=06:31:45.06 bitrate=8827.9kbits/s speed=70.7x    frame=1412880 fps=4246 q=-1.0 size=25367552kB time=06:32:15.28 bitrate=8829.8kbits/s speed=70.7x    frame=1414717 fps=4245 q=-1.0 size=25405696kB time=06:32:45.88 bitrate=8831.6kbits/s speed=70.7x    frame=1416832 fps=4245 q=-1.0 size=25449472kB time=06:33:21.12 bitrate=8833.6kbits/s speed=70.7x    frame=1419067 fps=4245 q=-1.0 size=25495808kB time=06:33:58.36 bitrate=8835.7kbits/s speed=70.7x    frame=1421287 fps=4246 q=-1.0 size=25541632kB time=06:34:35.33 bitrate=8837.8kbits/s speed=70.7x    frame=1423366 fps=4246 q=-1.0 size=25584896kB time=06:35:09.93 bitrate=8839.8kbits/s speed=70.7x    frame=1425558 fps=4246 q=-1.0 size=25630464kB time=06:35:46.47 bitrate=8841.9kbits/s speed=70.7x    frame=1427495 fps=4245 q=-1.0 size=25670656kB time=06:36:18.70 bitrate=8843.8kbits/s speed=70.7x    frame=1429689 fps=4245 q=-1.0 size=25715712kB time=06:36:55.25 bitrate=8845.7kbits/s speed=70.7x    frame=1431703 fps=4245 q=-1.0 size=25757440kB time=06:37:28.82 bitrate=8847.6kbits/s speed=70.7x    frame=1433570 fps=4244 q=-1.0 size=25795584kB time=06:37:59.90 bitrate=8849.2kbits/s speed=70.7x    frame=1435377 fps=4243 q=-1.0 size=25833216kB time=06:38:30.00 bitrate=8850.9kbits/s speed=70.7x    frame=1437254 fps=4243 q=-1.0 size=25872128kB time=06:39:01.25 bitrate=8852.7kbits/s speed=70.7x    frame=1439051 fps=4242 q=-1.0 size=25908992kB time=06:39:31.18 bitrate=8854.2kbits/s speed=70.7x    frame=1440710 fps=4240 q=-1.0 size=25943296kB time=06:39:58.79 bitrate=8855.8kbits/s speed=70.6x    frame=1442519 fps=4239 q=-1.0 size=25980672kB time=06:40:28.96 bitrate=8857.4kbits/s speed=70.6x    frame=1444286 fps=4238 q=-1.0 size=26017536kB time=06:40:58.38 bitrate=8859.1kbits/s speed=70.6x    frame=1446124 fps=4237 q=-1.0 size=26055680kB time=06:41:29.00 bitrate=8860.8kbits/s speed=70.6x    frame=1447942 fps=4237 q=-1.0 size=26093312kB time=06:41:59.26 bitrate=8862.5kbits/s speed=70.6x    frame=1449883 fps=4236 q=-1.0 size=26132992kB time=06:42:31.62 bitrate=8864.1kbits/s speed=70.6x    frame=1451697 fps=4235 q=-1.0 size=26170880kB time=06:43:01.82 bitrate=8865.8kbits/s speed=70.5x    frame=1453487 fps=4234 q=-1.0 size=26208000kB time=06:43:31.62 bitrate=8867.5kbits/s speed=70.5x    frame=1455184 fps=4233 q=-1.0 size=26243072kB time=06:43:59.91 bitrate=8869.0kbits/s speed=70.5x    frame=1457120 fps=4232 q=-1.0 size=26282752kB time=06:44:32.17 bitrate=8870.6kbits/s speed=70.5x    frame=1458873 fps=4231 q=-1.0 size=26319360kB time=06:45:01.35 bitrate=8872.3kbits/s speed=70.5x    frame=1460802 fps=4231 q=-1.0 size=26359040kB time=06:45:33.49 bitrate=8873.9kbits/s speed=70.5x    frame=1462531 fps=4230 q=-1.0 size=26395392kB time=06:46:02.27 bitrate=8875.7kbits/s speed=70.5x    frame=1464365 fps=4229 q=-1.0 size=26433024kB time=06:46:32.85 bitrate=8877.2kbits/s speed=70.4x    frame=1466242 fps=4228 q=-1.0 size=26472192kB time=06:47:04.10 bitrate=8878.9kbits/s speed=70.4x    frame=1468107 fps=4228 q=-1.0 size=26510848kB time=06:47:35.16 bitrate=8880.6kbits/s speed=70.4x    frame=1469929 fps=4227 q=-1.0 size=26548736kB time=06:48:05.53 bitrate=8882.3kbits/s speed=70.4x    frame=1471675 fps=4226 q=-1.0 size=26584832kB time=06:48:34.62 bitrate=8883.8kbits/s speed=70.4x    frame=1473597 fps=4225 q=-1.0 size=26624256kB time=06:49:06.63 bitrate=8885.4kbits/s speed=70.4x    frame=1475308 fps=4224 q=-1.0 size=26659840kB time=06:49:35.15 bitrate=8886.9kbits/s speed=70.4x    frame=1477005 fps=4223 q=-1.0 size=26695168kB time=06:50:03.42 bitrate=8888.5kbits/s speed=70.3x    frame=1478923 fps=4222 q=-1.0 size=26734336kB time=06:50:35.32 bitrate=8890.0kbits/s speed=70.3x    frame=1480561 fps=4221 q=-1.0 size=26768384kB time=06:51:02.63 bitrate=8891.4kbits/s speed=70.3x    frame=1482255 fps=4220 q=-1.0 size=26803200kB time=06:51:30.82 bitrate=8892.9kbits/s speed=70.3x    frame=1484089 fps=4219 q=-1.0 size=26841344kB time=06:52:01.38 bitrate=8894.5kbits/s speed=70.3x    frame=1485908 fps=4218 q=-1.0 size=26878976kB time=06:52:31.67 bitrate=8896.1kbits/s speed=70.3x    frame=1487675 fps=4217 q=-1.0 size=26915840kB time=06:53:01.12 bitrate=8897.7kbits/s speed=70.2x    frame=1489529 fps=4216 q=-1.0 size=26954240kB time=06:53:31.97 bitrate=8899.3kbits/s speed=70.2x    frame=1491182 fps=4215 q=-1.0 size=26988800kB time=06:53:59.51 bitrate=8900.8kbits/s speed=70.2x    frame=1492911 fps=4214 q=-1.0 size=27024128kB time=06:54:28.30 bitrate=8902.2kbits/s speed=70.2x    frame=1494621 fps=4213 q=-1.0 size=27059968kB time=06:54:56.80 bitrate=8903.8kbits/s speed=70.2x    frame=1496419 fps=4212 q=-1.0 size=27096832kB time=06:55:26.74 bitrate=8905.2kbits/s speed=70.2x    frame=1498093 fps=4211 q=-1.0 size=27131648kB time=06:55:54.61 bitrate=8906.7kbits/s speed=70.1x    frame=1499970 fps=4210 q=-1.0 size=27170048kB time=06:56:25.83 bitrate=8908.1kbits/s speed=70.1x    frame=1501744 fps=4209 q=-1.0 size=27206912kB time=06:56:55.39 bitrate=8909.7kbits/s speed=70.1x    frame=1503536 fps=4208 q=-1.0 size=27244032kB time=06:57:25.25 bitrate=8911.2kbits/s speed=70.1x    frame=1505478 fps=4208 q=-1.0 size=27283712kB time=06:57:57.58 bitrate=8912.7kbits/s speed=70.1x    frame=1507216 fps=4207 q=-1.0 size=27320064kB time=06:58:26.52 bitrate=8914.3kbits/s speed=70.1x    frame=1509010 fps=4206 q=-1.0 size=27357184kB time=06:58:56.43 bitrate=8915.7kbits/s speed=70.1x    frame=1510983 fps=4206 q=-1.0 size=27398144kB time=06:59:29.28 bitrate=8917.4kbits/s speed=70.1x    frame=1512913 fps=4205 q=-1.0 size=27437824kB time=07:00:01.44 bitrate=8919.0kbits/s speed=  70x    frame=1514700 fps=4204 q=-1.0 size=27474944kB time=07:00:31.19 bitrate=8920.5kbits/s speed=  70x    frame=1516663 fps=4204 q=-1.0 size=27515392kB time=07:01:03.90 bitrate=8922.1kbits/s speed=  70x    frame=1518537 fps=4203 q=-1.0 size=27553536kB time=07:01:35.13 bitrate=8923.4kbits/s speed=  70x    frame=1520392 fps=4202 q=-1.0 size=27592192kB time=07:02:06.02 bitrate=8925.0kbits/s speed=  70x    frame=1522362 fps=4202 q=-1.0 size=27633152kB time=07:02:38.83 bitrate=8926.7kbits/s speed=  70x    frame=1524372 fps=4202 q=-1.0 size=27674880kB time=07:03:12.28 bitrate=8928.4kbits/s speed=  70x    frame=1526191 fps=4201 q=-1.0 size=27712256kB time=07:03:42.56 bitrate=8929.8kbits/s speed=  70x    frame=1528175 fps=4201 q=-1.0 size=27753728kB time=07:04:15.61 bitrate=8931.6kbits/s speed=  70x    frame=1530032 fps=4200 q=-1.0 size=27792128kB time=07:04:46.51 bitrate=8933.1kbits/s speed=  70x    frame=1531888 fps=4199 q=-1.0 size=27830528kB time=07:05:17.43 bitrate=8934.6kbits/s speed=69.9x    frame=1533851 fps=4199 q=-1.0 size=27871232kB time=07:05:50.14 bitrate=8936.2kbits/s speed=69.9x    frame=1535675 fps=4198 q=-1.0 size=27909632kB time=07:06:20.51 bitrate=8937.9kbits/s speed=69.9x    frame=1537552 fps=4198 q=-1.0 size=27948288kB time=07:06:51.76 bitrate=8939.3kbits/s speed=69.9x    frame=1539334 fps=4197 q=-1.0 size=27985152kB time=07:07:21.44 bitrate=8940.8kbits/s speed=69.9x    frame=1541213 fps=4196 q=-1.0 size=28024320kB time=07:07:52.73 bitrate=8942.4kbits/s speed=69.9x    frame=1543183 fps=4196 q=-1.0 size=28064512kB time=07:08:25.55 bitrate=8943.8kbits/s speed=69.9x    frame=1545086 fps=4195 q=-1.0 size=28103936kB time=07:08:57.26 bitrate=8945.3kbits/s speed=69.9x    frame=1546969 fps=4195 q=-1.0 size=28143104kB time=07:09:28.65 bitrate=8946.9kbits/s speed=69.9x    frame=1548831 fps=4194 q=-1.0 size=28181760kB time=07:09:59.66 bitrate=8948.4kbits/s speed=69.9x    frame=1550829 fps=4194 q=-1.0 size=28222976kB time=07:10:32.95 bitrate=8949.9kbits/s speed=69.9x    frame=1552743 fps=4193 q=-1.0 size=28262656kB time=07:11:04.80 bitrate=8951.5kbits/s speed=69.8x    frame=1554750 fps=4193 q=-1.0 size=28304384kB time=07:11:38.24 bitrate=8953.1kbits/s speed=69.8x    frame=1556719 fps=4193 q=-1.0 size=28345088kB time=07:12:11.01 bitrate=8954.6kbits/s speed=69.8x    frame=1558642 fps=4192 q=-1.0 size=28385024kB time=07:12:43.09 bitrate=8956.2kbits/s speed=69.8x    frame=1560478 fps=4191 q=-1.0 size=28423168kB time=07:13:13.67 bitrate=8957.7kbits/s speed=69.8x    frame=1562351 fps=4191 q=-1.0 size=28461824kB time=07:13:44.84 bitrate=8959.1kbits/s speed=69.8x    frame=1564011 fps=4190 q=-1.0 size=28496384kB time=07:14:12.49 bitrate=8960.5kbits/s speed=69.8x    frame=1565890 fps=4189 q=-1.0 size=28535296kB time=07:14:43.81 bitrate=8961.9kbits/s speed=69.8x    frame=1567794 fps=4189 q=-1.0 size=28574976kB time=07:15:15.54 bitrate=8963.5kbits/s speed=69.8x    frame=1569593 fps=4188 q=-1.0 size=28612352kB time=07:15:45.48 bitrate=8964.9kbits/s speed=69.8x    frame=1571410 fps=4187 q=-1.0 size=28649728kB time=07:16:15.79 bitrate=8966.2kbits/s speed=69.7x    frame=1573375 fps=4187 q=-1.0 size=28690176kB time=07:16:48.50 bitrate=8967.7kbits/s speed=69.7x    frame=1575151 fps=4186 q=-1.0 size=28727296kB time=07:17:18.09 bitrate=8969.2kbits/s speed=69.7x    frame=1577085 fps=4185 q=-1.0 size=28767232kB time=07:17:50.29 bitrate=8970.6kbits/s speed=69.7x    frame=1579049 fps=4185 q=-1.0 size=28808192kB time=07:18:23.04 bitrate=8972.2kbits/s speed=69.7x    frame=1580930 fps=4184 q=-1.0 size=28846592kB time=07:18:54.35 bitrate=8973.5kbits/s speed=69.7x    frame=1582920 fps=4184 q=-1.0 size=28887808kB time=07:19:27.53 bitrate=8975.0kbits/s speed=69.7x    frame=1584880 fps=4184 q=-1.0 size=28928512kB time=07:20:00.17 bitrate=8976.5kbits/s speed=69.7x    frame=1586827 fps=4183 q=-1.0 size=28968704kB time=07:20:32.58 bitrate=8978.0kbits/s speed=69.7x    frame=1588794 fps=4183 q=-1.0 size=29009664kB time=07:21:05.36 bitrate=8979.6kbits/s speed=69.7x    frame=1590669 fps=4183 q=-1.0 size=29048576kB time=07:21:36.61 bitrate=8981.0kbits/s speed=69.7x    frame=1592660 fps=4182 q=-1.0 size=29089536kB time=07:22:09.73 bitrate=8982.4kbits/s speed=69.7x    frame=1594645 fps=4182 q=-1.0 size=29131008kB time=07:22:42.80 bitrate=8984.0kbits/s speed=69.7x    frame=1596701 fps=4182 q=-1.0 size=29173504kB time=07:23:17.04 bitrate=8985.6kbits/s speed=69.7x    frame=1598706 fps=4182 q=-1.0 size=29215232kB time=07:23:50.48 bitrate=8987.1kbits/s speed=69.7x    frame=1600866 fps=4182 q=-1.0 size=29259776kB time=07:24:26.43 bitrate=8988.7kbits/s speed=69.7x    frame=1602777 fps=4181 q=-1.0 size=29299712kB time=07:24:58.27 bitrate=8990.2kbits/s speed=69.7x    frame=1604534 fps=4180 q=-1.0 size=29336064kB time=07:25:27.56 bitrate=8991.5kbits/s speed=69.6x    frame=1606377 fps=4180 q=-1.0 size=29374208kB time=07:25:58.28 bitrate=8992.9kbits/s speed=69.6x    frame=1608323 fps=4179 q=-1.0 size=29414656kB time=07:26:30.69 bitrate=8994.3kbits/s speed=69.6x    frame=1610073 fps=4179 q=-1.0 size=29451008kB time=07:26:59.84 bitrate=8995.7kbits/s speed=69.6x    frame=1612030 fps=4178 q=-1.0 size=29490944kB time=07:27:32.43 bitrate=8996.9kbits/s speed=69.6x    frame=1613913 fps=4178 q=-1.0 size=29529600kB time=07:28:03.80 bitrate=8998.2kbits/s speed=69.6x    frame=1615709 fps=4177 q=-1.0 size=29566976kB time=07:28:33.71 bitrate=8999.6kbits/s speed=69.6x    frame=1617474 fps=4176 q=-1.0 size=29603584kB time=07:29:03.13 bitrate=9000.9kbits/s speed=69.6x    frame=1619292 fps=4175 q=-1.0 size=29641216kB time=07:29:33.42 bitrate=9002.2kbits/s speed=69.6x    frame=1621044 fps=4175 q=-1.0 size=29677568kB time=07:30:02.57 bitrate=9003.5kbits/s speed=69.5x    frame=1622863 fps=4174 q=-1.0 size=29715200kB time=07:30:32.86 bitrate=9004.9kbits/s speed=69.5x    frame=1624884 fps=4174 q=-1.0 size=29757184kB time=07:31:06.52 bitrate=9006.4kbits/s speed=69.5x    frame=1626709 fps=4173 q=-1.0 size=29795328kB time=07:31:36.93 bitrate=9007.8kbits/s speed=69.5x    frame=1628806 fps=4173 q=-1.0 size=29838592kB time=07:32:11.85 bitrate=9009.3kbits/s speed=69.5x    frame=1630737 fps=4173 q=-1.0 size=29878528kB time=07:32:44.05 bitrate=9010.6kbits/s speed=69.5x    frame=1632486 fps=4172 q=-1.0 size=29914880kB time=07:33:13.15 bitrate=9011.9kbits/s speed=69.5x    frame=1634334 fps=4171 q=-1.0 size=29953280kB time=07:33:43.94 bitrate=9013.3kbits/s speed=69.5x    frame=1636109 fps=4170 q=-1.0 size=29989888kB time=07:34:13.53 bitrate=9014.5kbits/s speed=69.5x    frame=1637919 fps=4170 q=-1.0 size=30027520kB time=07:34:43.68 bitrate=9015.8kbits/s speed=69.5x    frame=1639773 fps=4169 q=-1.0 size=30065920kB time=07:35:14.53 bitrate=9017.2kbits/s speed=69.4x    frame=1641630 fps=4168 q=-1.0 size=30104320kB time=07:35:45.47 bitrate=9018.5kbits/s speed=69.4x    frame=1643381 fps=4168 q=-1.0 size=30140928kB time=07:36:14.60 bitrate=9019.8kbits/s speed=69.4x    frame=1645145 fps=4167 q=-1.0 size=30177536kB time=07:36:43.98 bitrate=9021.1kbits/s speed=69.4x    frame=1647063 fps=4166 q=-1.0 size=30216960kB time=07:37:15.94 bitrate=9022.4kbits/s speed=69.4x    frame=1648925 fps=4166 q=-1.0 size=30254848kB time=07:37:46.94 bitrate=9023.5kbits/s speed=69.4x    frame=1651080 fps=4166 q=-1.0 size=30294016kB time=07:38:22.84 bitrate=9023.4kbits/s speed=69.4x    frame=1653324 fps=4166 q=-1.0 size=30334720kB time=07:39:00.18 bitrate=9023.3kbits/s speed=69.4x    frame=1656783 fps=4170 q=-1.0 size=30370560kB time=07:39:57.80 bitrate=9015.1kbits/s speed=69.5x    frame=1661694 fps=4177 q=-1.0 size=30408192kB time=07:41:19.62 bitrate=8999.5kbits/s speed=69.6x    frame=1664246 fps=4178 q=-1.0 size=30447360kB time=07:42:02.17 bitrate=8997.3kbits/s speed=69.6x    frame=1667063 fps=4180 q=-1.0 size=30483712kB time=07:42:49.08 bitrate=8992.8kbits/s speed=69.6x    frame=1668945 fps=4179 q=-1.0 size=30522368kB time=07:43:20.43 bitrate=8994.1kbits/s speed=69.6x    frame=1670767 fps=4179 q=-1.0 size=30560256kB time=07:43:50.76 bitrate=8995.4kbits/s speed=69.6x    frame=1672629 fps=4178 q=-1.0 size=30598912kB time=07:44:21.76 bitrate=8996.8kbits/s speed=69.6x    frame=1674587 fps=4178 q=-1.0 size=30639616kB time=07:44:54.38 bitrate=8998.2kbits/s speed=69.6x    frame=1676518 fps=4177 q=-1.0 size=30679808kB time=07:45:26.51 bitrate=8999.7kbits/s speed=69.6x    frame=1678267 fps=4176 q=-1.0 size=30716160kB time=07:45:55.68 bitrate=9000.9kbits/s speed=69.6x    frame=1680135 fps=4176 q=-1.0 size=30754816kB time=07:46:26.77 bitrate=9002.2kbits/s speed=69.6x    frame=1682063 fps=4176 q=-1.0 size=30794496kB time=07:46:58.87 bitrate=9003.5kbits/s speed=69.6x    frame=1683888 fps=4175 q=-1.0 size=30831360kB time=07:47:29.28 bitrate=9004.5kbits/s speed=69.5x    frame=1685753 fps=4174 q=-1.0 size=30870016kB time=07:48:00.34 bitrate=9005.8kbits/s speed=69.5x    frame=1687593 fps=4174 q=-1.0 size=30908160kB time=07:48:31.01 bitrate=9007.1kbits/s speed=69.5x    frame=1689300 fps=4173 q=-1.0 size=30943744kB time=07:48:59.43 bitrate=9008.4kbits/s speed=69.5x    frame=1691163 fps=4172 q=-1.0 size=30982400kB time=07:49:30.45 bitrate=9009.7kbits/s speed=69.5x    frame=1692996 fps=4172 q=-1.0 size=31020544kB time=07:50:00.98 bitrate=9011.0kbits/s speed=69.5x    frame=1694792 fps=4171 q=-1.0 size=31056640kB time=07:50:30.89 bitrate=9012.0kbits/s speed=69.5x    frame=1696706 fps=4170 q=-1.0 size=31095040kB time=07:51:02.75 bitrate=9012.9kbits/s speed=69.5x    frame=1698599 fps=4170 q=-1.0 size=31134464kB time=07:51:34.28 bitrate=9014.3kbits/s speed=69.5x    frame=1700346 fps=4169 q=-1.0 size=31170816kB time=07:52:03.39 bitrate=9015.6kbits/s speed=69.4x    frame=1702384 fps=4169 q=-1.0 size=31210240kB time=07:52:37.33 bitrate=9016.2kbits/s speed=69.4x    frame=1704693 fps=4170 q=-1.0 size=31250176kB time=07:53:15.79 bitrate=9015.5kbits/s speed=69.5x    frame=1707006 fps=4174 q=-1.0 Lsize=31258186kB time=07:53:54.31 bitrate=9005.6kbits/s speed=69.5x    
video:30521135kB audio:679897kB subtitle:0kB other streams:0kB global headers:0kB muxing overhead: 0.183180%
